M48
INCH,LZ
;FILE_FORMAT=2:4
;TYPE=PLATED
;Layer: Drill PTH
;EasyEDA v6.4.20.2, 2021-06-27T22:08:49--7:00
;5bb4508a62654dd5b4bd4a713fde6167,27d4ab91a1c145949b64cbb6833597a5,10
;Gerber Generator version 0.2
;Holesize 1 = 0.0120 inch
T01C0.0120
;Holesize 2 = 0.0280 inch
T02C0.0280
;Holesize 3 = 0.0330 inch
T03C0.0330
;Holesize 4 = 0.0350 inch
T04C0.0350
;Holesize 5 = 0.0390 inch
T05C0.0390
;Holesize 6 = 0.0430 inch
T06C0.0430
;Holesize 7 = 0.0470 inch
T07C0.0470
%
G05
G90
T01
X009300Y-066300
X033300Y-044900
X014600Y-054300
X041050Y-054550
T02
X012500Y-064500
X011500Y-064500
X010500Y-064500
X009500Y-064500
X008500Y-064500
X007500Y-064500
X006500Y-064500
X005500Y-064500
X005500Y-061500
X006500Y-061500
X007500Y-061500
X008500Y-061500
X009500Y-061500
X010500Y-061500
X011500Y-061500
X012500Y-061500
X022550Y-064492
X021550Y-064492
X020550Y-064492
X019550Y-064492
X018550Y-064492
X017550Y-064492
X016550Y-064492
X015550Y-064492
X015550Y-061492
X016550Y-061492
X017550Y-061492
X018550Y-061492
X019550Y-061492
X020550Y-061492
X021550Y-061492
X022550Y-061492
X040550Y-064500
X039550Y-064500
X038550Y-064500
X037550Y-064500
X036550Y-064500
X035550Y-064500
X034550Y-064500
X033550Y-064500
X033550Y-061500
X034550Y-061500
X035550Y-061500
X036550Y-061500
X037550Y-061500
X038550Y-061500
X039550Y-061500
X040550Y-061500
X050500Y-064500
X049500Y-064500
X048500Y-064500
X047500Y-064500
X046500Y-064500
X045500Y-064500
X044500Y-064500
X043500Y-064500
X043500Y-061500
X044500Y-061500
X045500Y-061500
X046500Y-061500
X047500Y-061500
X048500Y-061500
X049500Y-061500
X050500Y-061500
T03
X009843Y-052713
X008713Y-052993
X007833Y-053773
X007423Y-054863
X007563Y-056013
X008223Y-056973
X009263Y-057523
X010423Y-057523
X011463Y-056973
X012123Y-056013
X012263Y-054863
X011853Y-053773
X010973Y-052993
X019685Y-052713
X018555Y-052993
X017675Y-053773
X017265Y-054863
X017405Y-056013
X018065Y-056973
X019105Y-057523
X020265Y-057523
X021305Y-056973
X021965Y-056013
X022105Y-054863
X021695Y-053773
X020815Y-052993
X036614Y-052713
X035484Y-052993
X034604Y-053773
X034194Y-054863
X034334Y-056013
X034994Y-056973
X036034Y-057523
X037194Y-057523
X038234Y-056973
X038894Y-056013
X039034Y-054863
X038624Y-053773
X037744Y-052993
X046457Y-052713
X045327Y-052993
X044447Y-053773
X044037Y-054863
X044177Y-056013
X044837Y-056973
X045877Y-057523
X047037Y-057523
X048077Y-056973
X048737Y-056013
X048877Y-054863
X048467Y-053773
X047587Y-052993
T04
X030990Y-045427
X030990Y-046427
X030990Y-047427
X030990Y-048427
X030990Y-049427
X030990Y-050427
X030990Y-051427
X030990Y-052427
X030990Y-053427
X030990Y-054427
X030990Y-055427
X030990Y-056427
X030990Y-057427
X030990Y-058427
X030990Y-059427
X030990Y-060427
X030990Y-061427
X030990Y-062427
X030990Y-063427
X030990Y-064427
X024990Y-045427
X024990Y-046427
X024990Y-047427
X024990Y-048427
X024990Y-049427
X024990Y-050427
X024990Y-051427
X024990Y-052427
X024990Y-053427
X024990Y-054427
X024990Y-055427
X024990Y-056427
X024990Y-057427
X024990Y-058427
X024990Y-059427
X024990Y-060427
X024990Y-061427
X024990Y-062427
X024990Y-063427
X024990Y-064427
T05
X009801Y-050000
X003699Y-050000
X019651Y-050000
X013549Y-050000
X036599Y-050000
X042701Y-050000
X046499Y-050000
X052601Y-050000
T06
X043500Y-043450
X048500Y-043550
X046150Y-043450
T07
X031500Y-043500
X030500Y-043500
X024500Y-043450
X025500Y-043450
M30
