G04 Layer: BottomSilkLayer*
G04 EasyEDA v6.4.20.2, 2021-06-27T22:08:49--7:00*
G04 5bb4508a62654dd5b4bd4a713fde6167,27d4ab91a1c145949b64cbb6833597a5,10*
G04 Gerber Generator version 0.2*
G04 Scale: 100 percent, Rotated: No, Reflected: No *
G04 Dimensions in inches *
G04 leading zeros omitted , absolute positions ,3 integer and 6 decimal *
%FSLAX36Y36*%
%MOIN*%

%ADD10C,0.0100*%
%ADD24C,0.0080*%
%ADD26C,0.0060*%
%ADD27C,0.0090*%
%ADD28C,0.0079*%

%LPD*%
D26*
X1440000Y-4169600D02*
G01*
X1440000Y-4212500D01*
X1440000Y-4169600D02*
G01*
X1421599Y-4169600D01*
X1415500Y-4171599D01*
X1413400Y-4173699D01*
X1411400Y-4177800D01*
X1411400Y-4181900D01*
X1413400Y-4185999D01*
X1415500Y-4188000D01*
X1421599Y-4190000D01*
X1440000Y-4190000D02*
G01*
X1421599Y-4190000D01*
X1415500Y-4192100D01*
X1413400Y-4194099D01*
X1411400Y-4198200D01*
X1411400Y-4204400D01*
X1413400Y-4208499D01*
X1415500Y-4210500D01*
X1421599Y-4212500D01*
X1440000Y-4212500D01*
X1397899Y-4177800D02*
G01*
X1393800Y-4175700D01*
X1387600Y-4169600D01*
X1387600Y-4212500D01*
X4143670Y-4684800D02*
G01*
X4145770Y-4680700D01*
X4149870Y-4676599D01*
X4153869Y-4674600D01*
X4162070Y-4674600D01*
X4166170Y-4676599D01*
X4170270Y-4680700D01*
X4172370Y-4684800D01*
X4174369Y-4690999D01*
X4174369Y-4701199D01*
X4172370Y-4707300D01*
X4170270Y-4711399D01*
X4166170Y-4715500D01*
X4162070Y-4717500D01*
X4153869Y-4717500D01*
X4149870Y-4715500D01*
X4145770Y-4711399D01*
X4143670Y-4707300D01*
X4130169Y-4682800D02*
G01*
X4126069Y-4680700D01*
X4119970Y-4674600D01*
X4119970Y-4717500D01*
X4157482Y-4692912D02*
G01*
X4157482Y-4662213D01*
X4159481Y-4656113D01*
X4163581Y-4652013D01*
X4169781Y-4650012D01*
X4173882Y-4650012D01*
X4179982Y-4652013D01*
X4184081Y-4656113D01*
X4186081Y-4662213D01*
X4186081Y-4692912D01*
X4201682Y-4682712D02*
G01*
X4201682Y-4684713D01*
X4203681Y-4688813D01*
X4205781Y-4690913D01*
X4209881Y-4692912D01*
X4217982Y-4692912D01*
X4222082Y-4690913D01*
X4224182Y-4688813D01*
X4226181Y-4684713D01*
X4226181Y-4680612D01*
X4224182Y-4676513D01*
X4220082Y-4670412D01*
X4199582Y-4650012D01*
X4228281Y-4650012D01*
X900000Y-6054600D02*
G01*
X900000Y-6085300D01*
X898000Y-6091399D01*
X893900Y-6095500D01*
X887700Y-6097500D01*
X883599Y-6097500D01*
X877500Y-6095500D01*
X873400Y-6091399D01*
X871400Y-6085300D01*
X871400Y-6054600D01*
X853800Y-6054600D02*
G01*
X831300Y-6054600D01*
X843500Y-6070999D01*
X837399Y-6070999D01*
X833299Y-6073000D01*
X831300Y-6075000D01*
X829200Y-6081199D01*
X829200Y-6085300D01*
X831300Y-6091399D01*
X835399Y-6095500D01*
X841499Y-6097500D01*
X847600Y-6097500D01*
X853800Y-6095500D01*
X855799Y-6093499D01*
X857899Y-6089400D01*
X1905000Y-6053811D02*
G01*
X1905000Y-6084512D01*
X1903000Y-6090612D01*
X1898900Y-6094712D01*
X1892700Y-6096712D01*
X1888599Y-6096712D01*
X1882500Y-6094712D01*
X1878400Y-6090612D01*
X1876400Y-6084512D01*
X1876400Y-6053811D01*
X1842399Y-6053811D02*
G01*
X1862899Y-6082411D01*
X1832200Y-6082411D01*
X1842399Y-6053811D02*
G01*
X1842399Y-6096712D01*
X3705000Y-6054600D02*
G01*
X3705000Y-6085300D01*
X3703000Y-6091399D01*
X3698900Y-6095500D01*
X3692700Y-6097500D01*
X3688599Y-6097500D01*
X3682500Y-6095500D01*
X3678400Y-6091399D01*
X3676400Y-6085300D01*
X3676400Y-6054600D01*
X3638299Y-6054600D02*
G01*
X3658800Y-6054600D01*
X3660799Y-6073000D01*
X3658800Y-6070999D01*
X3652600Y-6068899D01*
X3646499Y-6068899D01*
X3640399Y-6070999D01*
X3636300Y-6075000D01*
X3634200Y-6081199D01*
X3634200Y-6085300D01*
X3636300Y-6091399D01*
X3640399Y-6095500D01*
X3646499Y-6097500D01*
X3652600Y-6097500D01*
X3658800Y-6095500D01*
X3660799Y-6093499D01*
X3662899Y-6089400D01*
X4700000Y-6054600D02*
G01*
X4700000Y-6085300D01*
X4698000Y-6091399D01*
X4693900Y-6095500D01*
X4687700Y-6097500D01*
X4683599Y-6097500D01*
X4677500Y-6095500D01*
X4673400Y-6091399D01*
X4671400Y-6085300D01*
X4671400Y-6054600D01*
X4633299Y-6060700D02*
G01*
X4635400Y-6056599D01*
X4641499Y-6054600D01*
X4645600Y-6054600D01*
X4651700Y-6056599D01*
X4655799Y-6062800D01*
X4657900Y-6073000D01*
X4657900Y-6083200D01*
X4655799Y-6091399D01*
X4651700Y-6095500D01*
X4645600Y-6097500D01*
X4643500Y-6097500D01*
X4637399Y-6095500D01*
X4633299Y-6091399D01*
X4631300Y-6085300D01*
X4631300Y-6083200D01*
X4633299Y-6077100D01*
X4637399Y-6073000D01*
X4643500Y-6070999D01*
X4645600Y-6070999D01*
X4651700Y-6073000D01*
X4655799Y-6077100D01*
X4657900Y-6083200D01*
X2460000Y-4836323D02*
G01*
X2460000Y-4867004D01*
X2457955Y-4873141D01*
X2453864Y-4877231D01*
X2447727Y-4879277D01*
X2443635Y-4879277D01*
X2437500Y-4877231D01*
X2433409Y-4873141D01*
X2431364Y-4867004D01*
X2431364Y-4836323D01*
X2417863Y-4844504D02*
G01*
X2413773Y-4842458D01*
X2407636Y-4836323D01*
X2407636Y-4879277D01*
D28*
X2654300Y-6424731D02*
G01*
X2644300Y-6451032D01*
X2634300Y-6424731D02*
G01*
X2644300Y-6451032D01*
X2626000Y-6424731D02*
G01*
X2626000Y-6451032D01*
X2626000Y-6424731D02*
G01*
X2614700Y-6424731D01*
X2611000Y-6425931D01*
X2609700Y-6427231D01*
X2608500Y-6429731D01*
X2608500Y-6432231D01*
X2609700Y-6434731D01*
X2611000Y-6435931D01*
X2614700Y-6437231D01*
X2626000Y-6437231D02*
G01*
X2614700Y-6437231D01*
X2611000Y-6438431D01*
X2609700Y-6439731D01*
X2608500Y-6442231D01*
X2608500Y-6446032D01*
X2609700Y-6448532D01*
X2611000Y-6449731D01*
X2614700Y-6451032D01*
X2626000Y-6451032D01*
X2590200Y-6424731D02*
G01*
X2600200Y-6451032D01*
X2590200Y-6424731D02*
G01*
X2580100Y-6451032D01*
X2596400Y-6442231D02*
G01*
X2583900Y-6442231D01*
X2563100Y-6424731D02*
G01*
X2563100Y-6451032D01*
X2571899Y-6424731D02*
G01*
X2554300Y-6424731D01*
X2670000Y-6325731D02*
G01*
X2670000Y-6352031D01*
X2670000Y-6325731D02*
G01*
X2658699Y-6325731D01*
X2655000Y-6326932D01*
X2653699Y-6328231D01*
X2652500Y-6330731D01*
X2652500Y-6334432D01*
X2653699Y-6336932D01*
X2655000Y-6338231D01*
X2658699Y-6339432D01*
X2670000Y-6339432D01*
X2625399Y-6331932D02*
G01*
X2626700Y-6329432D01*
X2629200Y-6326932D01*
X2631700Y-6325731D01*
X2636700Y-6325731D01*
X2639200Y-6326932D01*
X2641700Y-6329432D01*
X2642899Y-6331932D01*
X2644200Y-6335731D01*
X2644200Y-6342031D01*
X2642899Y-6345731D01*
X2641700Y-6348231D01*
X2639200Y-6350731D01*
X2636700Y-6352031D01*
X2631700Y-6352031D01*
X2629200Y-6350731D01*
X2626700Y-6348231D01*
X2625399Y-6345731D01*
X2617100Y-6340731D02*
G01*
X2594600Y-6340731D01*
X2586300Y-6330731D02*
G01*
X2583800Y-6329432D01*
X2580100Y-6325731D01*
X2580100Y-6352031D01*
X2569300Y-6325731D02*
G01*
X2555500Y-6325731D01*
X2563000Y-6335731D01*
X2559300Y-6335731D01*
X2556800Y-6336932D01*
X2555500Y-6338231D01*
X2554300Y-6342031D01*
X2554300Y-6344531D01*
X2555500Y-6348231D01*
X2558000Y-6350731D01*
X2561800Y-6352031D01*
X2565500Y-6352031D01*
X2569300Y-6350731D01*
X2570500Y-6349531D01*
X2571800Y-6347031D01*
X2671300Y-6227732D02*
G01*
X2671300Y-6254032D01*
X2671300Y-6227732D02*
G01*
X2660000Y-6227732D01*
X2656300Y-6228932D01*
X2655000Y-6230232D01*
X2653800Y-6232732D01*
X2653800Y-6236432D01*
X2655000Y-6238932D01*
X2656300Y-6240232D01*
X2660000Y-6241432D01*
X2671300Y-6241432D01*
X2626700Y-6233932D02*
G01*
X2628000Y-6231432D01*
X2630500Y-6228932D01*
X2633000Y-6227732D01*
X2638000Y-6227732D01*
X2640500Y-6228932D01*
X2643000Y-6231432D01*
X2644200Y-6233932D01*
X2645500Y-6237732D01*
X2645500Y-6244032D01*
X2644200Y-6247732D01*
X2643000Y-6250232D01*
X2640500Y-6252732D01*
X2638000Y-6254032D01*
X2633000Y-6254032D01*
X2630500Y-6252732D01*
X2628000Y-6250232D01*
X2626700Y-6247732D01*
X2618400Y-6242732D02*
G01*
X2595900Y-6242732D01*
X2587600Y-6232732D02*
G01*
X2585100Y-6231432D01*
X2581400Y-6227732D01*
X2581400Y-6254032D01*
X2560600Y-6227732D02*
G01*
X2573100Y-6245232D01*
X2554300Y-6245232D01*
X2560600Y-6227732D02*
G01*
X2560600Y-6254032D01*
X2670000Y-6126732D02*
G01*
X2670000Y-6153031D01*
X2670000Y-6126732D02*
G01*
X2658699Y-6126732D01*
X2655000Y-6127932D01*
X2653699Y-6129232D01*
X2652500Y-6131732D01*
X2652500Y-6135432D01*
X2653699Y-6137932D01*
X2655000Y-6139232D01*
X2658699Y-6140432D01*
X2670000Y-6140432D01*
X2625399Y-6132932D02*
G01*
X2626700Y-6130432D01*
X2629200Y-6127932D01*
X2631700Y-6126732D01*
X2636700Y-6126732D01*
X2639200Y-6127932D01*
X2641700Y-6130432D01*
X2642899Y-6132932D01*
X2644200Y-6136732D01*
X2644200Y-6143031D01*
X2642899Y-6146732D01*
X2641700Y-6149232D01*
X2639200Y-6151732D01*
X2636700Y-6153031D01*
X2631700Y-6153031D01*
X2629200Y-6151732D01*
X2626700Y-6149232D01*
X2625399Y-6146732D01*
X2617100Y-6141732D02*
G01*
X2594600Y-6141732D01*
X2586300Y-6131732D02*
G01*
X2583800Y-6130432D01*
X2580100Y-6126732D01*
X2580100Y-6153031D01*
X2556800Y-6126732D02*
G01*
X2569300Y-6126732D01*
X2570500Y-6137932D01*
X2569300Y-6136732D01*
X2565500Y-6135432D01*
X2561800Y-6135432D01*
X2558000Y-6136732D01*
X2555500Y-6139232D01*
X2554300Y-6143031D01*
X2554300Y-6145531D01*
X2555500Y-6149232D01*
X2558000Y-6151732D01*
X2561800Y-6153031D01*
X2565500Y-6153031D01*
X2569300Y-6151732D01*
X2570500Y-6150531D01*
X2571800Y-6148031D01*
X2656800Y-6025731D02*
G01*
X2656800Y-6052031D01*
X2656800Y-6025731D02*
G01*
X2645500Y-6025731D01*
X2641800Y-6026932D01*
X2640500Y-6028231D01*
X2639300Y-6030731D01*
X2639300Y-6034432D01*
X2640500Y-6036932D01*
X2641800Y-6038231D01*
X2645500Y-6039432D01*
X2656800Y-6039432D01*
X2621000Y-6025731D02*
G01*
X2631000Y-6052031D01*
X2621000Y-6025731D02*
G01*
X2611000Y-6052031D01*
X2627200Y-6043231D02*
G01*
X2614700Y-6043231D01*
X2602700Y-6040731D02*
G01*
X2580100Y-6040731D01*
X2564399Y-6025731D02*
G01*
X2568100Y-6026932D01*
X2570600Y-6030731D01*
X2571899Y-6036932D01*
X2571899Y-6040731D01*
X2570600Y-6047031D01*
X2568100Y-6050731D01*
X2564399Y-6052031D01*
X2561800Y-6052031D01*
X2558100Y-6050731D01*
X2555600Y-6047031D01*
X2554300Y-6040731D01*
X2554300Y-6036932D01*
X2555600Y-6030731D01*
X2558100Y-6026932D01*
X2561800Y-6025731D01*
X2564399Y-6025731D01*
X2645500Y-5919731D02*
G01*
X2645500Y-5946032D01*
X2645500Y-5919731D02*
G01*
X2634200Y-5919731D01*
X2630500Y-5920931D01*
X2629200Y-5922231D01*
X2628000Y-5924731D01*
X2628000Y-5928431D01*
X2629200Y-5930931D01*
X2630500Y-5932231D01*
X2634200Y-5933431D01*
X2645500Y-5933431D01*
X2609700Y-5919731D02*
G01*
X2619700Y-5946032D01*
X2609700Y-5919731D02*
G01*
X2599700Y-5946032D01*
X2615900Y-5937231D02*
G01*
X2603400Y-5937231D01*
X2591400Y-5934731D02*
G01*
X2568800Y-5934731D01*
X2560600Y-5924731D02*
G01*
X2558100Y-5923431D01*
X2554300Y-5919731D01*
X2554300Y-5946032D01*
X2656800Y-5821732D02*
G01*
X2656800Y-5848031D01*
X2656800Y-5821732D02*
G01*
X2645500Y-5821732D01*
X2641800Y-5822932D01*
X2640500Y-5824232D01*
X2639300Y-5826732D01*
X2639300Y-5830432D01*
X2640500Y-5832932D01*
X2641800Y-5834232D01*
X2645500Y-5835432D01*
X2656800Y-5835432D01*
X2621000Y-5821732D02*
G01*
X2631000Y-5848031D01*
X2621000Y-5821732D02*
G01*
X2611000Y-5848031D01*
X2627200Y-5839232D02*
G01*
X2614700Y-5839232D01*
X2602700Y-5836732D02*
G01*
X2580100Y-5836732D01*
X2570600Y-5827932D02*
G01*
X2570600Y-5826732D01*
X2569399Y-5824232D01*
X2568100Y-5822932D01*
X2565600Y-5821732D01*
X2560600Y-5821732D01*
X2558100Y-5822932D01*
X2556800Y-5824232D01*
X2555600Y-5826732D01*
X2555600Y-5829232D01*
X2556800Y-5831732D01*
X2559300Y-5835432D01*
X2571899Y-5848031D01*
X2554300Y-5848031D01*
X2656800Y-5720731D02*
G01*
X2656800Y-5747031D01*
X2656800Y-5720731D02*
G01*
X2645500Y-5720731D01*
X2641800Y-5721932D01*
X2640500Y-5723231D01*
X2639300Y-5725731D01*
X2639300Y-5729432D01*
X2640500Y-5731932D01*
X2641800Y-5733231D01*
X2645500Y-5734432D01*
X2656800Y-5734432D01*
X2621000Y-5720731D02*
G01*
X2631000Y-5747031D01*
X2621000Y-5720731D02*
G01*
X2611000Y-5747031D01*
X2627200Y-5738231D02*
G01*
X2614700Y-5738231D01*
X2602700Y-5735731D02*
G01*
X2580100Y-5735731D01*
X2569399Y-5720731D02*
G01*
X2555600Y-5720731D01*
X2563100Y-5730731D01*
X2559300Y-5730731D01*
X2556800Y-5731932D01*
X2555600Y-5733231D01*
X2554300Y-5737031D01*
X2554300Y-5739531D01*
X2555600Y-5743231D01*
X2558100Y-5745731D01*
X2561800Y-5747031D01*
X2565600Y-5747031D01*
X2569399Y-5745731D01*
X2570600Y-5744531D01*
X2571899Y-5742031D01*
X2658000Y-5619731D02*
G01*
X2658000Y-5646032D01*
X2658000Y-5619731D02*
G01*
X2646700Y-5619731D01*
X2643000Y-5620931D01*
X2641700Y-5622231D01*
X2640500Y-5624731D01*
X2640500Y-5628431D01*
X2641700Y-5630931D01*
X2643000Y-5632231D01*
X2646700Y-5633431D01*
X2658000Y-5633431D01*
X2622200Y-5619731D02*
G01*
X2632200Y-5646032D01*
X2622200Y-5619731D02*
G01*
X2612200Y-5646032D01*
X2628400Y-5637231D02*
G01*
X2615900Y-5637231D01*
X2603900Y-5634731D02*
G01*
X2581300Y-5634731D01*
X2560500Y-5619731D02*
G01*
X2573100Y-5637231D01*
X2554300Y-5637231D01*
X2560500Y-5619731D02*
G01*
X2560500Y-5646032D01*
X2656800Y-5519731D02*
G01*
X2656800Y-5546032D01*
X2656800Y-5519731D02*
G01*
X2645500Y-5519731D01*
X2641800Y-5520931D01*
X2640500Y-5522231D01*
X2639300Y-5524731D01*
X2639300Y-5528431D01*
X2640500Y-5530931D01*
X2641800Y-5532231D01*
X2645500Y-5533431D01*
X2656800Y-5533431D01*
X2621000Y-5519731D02*
G01*
X2631000Y-5546032D01*
X2621000Y-5519731D02*
G01*
X2611000Y-5546032D01*
X2627200Y-5537231D02*
G01*
X2614700Y-5537231D01*
X2602700Y-5534731D02*
G01*
X2580100Y-5534731D01*
X2556800Y-5519731D02*
G01*
X2569399Y-5519731D01*
X2570600Y-5530931D01*
X2569399Y-5529731D01*
X2565600Y-5528431D01*
X2561800Y-5528431D01*
X2558100Y-5529731D01*
X2555600Y-5532231D01*
X2554300Y-5536032D01*
X2554300Y-5538532D01*
X2555600Y-5542231D01*
X2558100Y-5544731D01*
X2561800Y-5546032D01*
X2565600Y-5546032D01*
X2569399Y-5544731D01*
X2570600Y-5543532D01*
X2571899Y-5541032D01*
X2655500Y-5421732D02*
G01*
X2655500Y-5448031D01*
X2655500Y-5421732D02*
G01*
X2644200Y-5421732D01*
X2640500Y-5422932D01*
X2639200Y-5424232D01*
X2638000Y-5426732D01*
X2638000Y-5430432D01*
X2639200Y-5432932D01*
X2640500Y-5434232D01*
X2644200Y-5435432D01*
X2655500Y-5435432D01*
X2619700Y-5421732D02*
G01*
X2629700Y-5448031D01*
X2619700Y-5421732D02*
G01*
X2609700Y-5448031D01*
X2625900Y-5439232D02*
G01*
X2613400Y-5439232D01*
X2601400Y-5436732D02*
G01*
X2578800Y-5436732D01*
X2555500Y-5425432D02*
G01*
X2556800Y-5422932D01*
X2560500Y-5421732D01*
X2563100Y-5421732D01*
X2566800Y-5422932D01*
X2569300Y-5426732D01*
X2570600Y-5432932D01*
X2570600Y-5439232D01*
X2569300Y-5444232D01*
X2566800Y-5446732D01*
X2563100Y-5448031D01*
X2561800Y-5448031D01*
X2558000Y-5446732D01*
X2555500Y-5444232D01*
X2554300Y-5440531D01*
X2554300Y-5439232D01*
X2555500Y-5435432D01*
X2558000Y-5432932D01*
X2561800Y-5431732D01*
X2563100Y-5431732D01*
X2566800Y-5432932D01*
X2569300Y-5435432D01*
X2570600Y-5439232D01*
X2656800Y-5320731D02*
G01*
X2656800Y-5347031D01*
X2656800Y-5320731D02*
G01*
X2645500Y-5320731D01*
X2641800Y-5321932D01*
X2640500Y-5323231D01*
X2639300Y-5325731D01*
X2639300Y-5329432D01*
X2640500Y-5331932D01*
X2641800Y-5333231D01*
X2645500Y-5334432D01*
X2656800Y-5334432D01*
X2621000Y-5320731D02*
G01*
X2631000Y-5347031D01*
X2621000Y-5320731D02*
G01*
X2611000Y-5347031D01*
X2627200Y-5338231D02*
G01*
X2614700Y-5338231D01*
X2602700Y-5335731D02*
G01*
X2580100Y-5335731D01*
X2554300Y-5320731D02*
G01*
X2566899Y-5347031D01*
X2571899Y-5320731D02*
G01*
X2554300Y-5320731D01*
X2654300Y-5219731D02*
G01*
X2654300Y-5246032D01*
X2654300Y-5219731D02*
G01*
X2643000Y-5219731D01*
X2639300Y-5220931D01*
X2638000Y-5222231D01*
X2636800Y-5224731D01*
X2636800Y-5228431D01*
X2638000Y-5230931D01*
X2639300Y-5232231D01*
X2643000Y-5233431D01*
X2654300Y-5233431D01*
X2628500Y-5219731D02*
G01*
X2628500Y-5246032D01*
X2628500Y-5219731D02*
G01*
X2617200Y-5219731D01*
X2613500Y-5220931D01*
X2612200Y-5222231D01*
X2611000Y-5224731D01*
X2611000Y-5227231D01*
X2612200Y-5229731D01*
X2613500Y-5230931D01*
X2617200Y-5232231D01*
X2628500Y-5232231D02*
G01*
X2617200Y-5232231D01*
X2613500Y-5233431D01*
X2612200Y-5234731D01*
X2611000Y-5237231D01*
X2611000Y-5241032D01*
X2612200Y-5243532D01*
X2613500Y-5244731D01*
X2617200Y-5246032D01*
X2628500Y-5246032D01*
X2602700Y-5234731D02*
G01*
X2580100Y-5234731D01*
X2564399Y-5219731D02*
G01*
X2568100Y-5220931D01*
X2570600Y-5224731D01*
X2571899Y-5230931D01*
X2571899Y-5234731D01*
X2570600Y-5241032D01*
X2568100Y-5244731D01*
X2564399Y-5246032D01*
X2561899Y-5246032D01*
X2558100Y-5244731D01*
X2555600Y-5241032D01*
X2554300Y-5234731D01*
X2554300Y-5230931D01*
X2555600Y-5224731D01*
X2558100Y-5220931D01*
X2561899Y-5219731D01*
X2564399Y-5219731D01*
X2643000Y-5119731D02*
G01*
X2643000Y-5146032D01*
X2643000Y-5119731D02*
G01*
X2631700Y-5119731D01*
X2628000Y-5120931D01*
X2626700Y-5122231D01*
X2625500Y-5124731D01*
X2625500Y-5128431D01*
X2626700Y-5130931D01*
X2628000Y-5132231D01*
X2631700Y-5133431D01*
X2643000Y-5133431D01*
X2617200Y-5119731D02*
G01*
X2617200Y-5146032D01*
X2617200Y-5119731D02*
G01*
X2605900Y-5119731D01*
X2602200Y-5120931D01*
X2600900Y-5122231D01*
X2599700Y-5124731D01*
X2599700Y-5127231D01*
X2600900Y-5129731D01*
X2602200Y-5130931D01*
X2605900Y-5132231D01*
X2617200Y-5132231D02*
G01*
X2605900Y-5132231D01*
X2602200Y-5133431D01*
X2600900Y-5134731D01*
X2599700Y-5137231D01*
X2599700Y-5141032D01*
X2600900Y-5143532D01*
X2602200Y-5144731D01*
X2605900Y-5146032D01*
X2617200Y-5146032D01*
X2591400Y-5134731D02*
G01*
X2568800Y-5134731D01*
X2560600Y-5124731D02*
G01*
X2558100Y-5123431D01*
X2554300Y-5119731D01*
X2554300Y-5146032D01*
X2668800Y-5021732D02*
G01*
X2668800Y-5048031D01*
X2668800Y-5021732D02*
G01*
X2657500Y-5021732D01*
X2653800Y-5022932D01*
X2652500Y-5024232D01*
X2651300Y-5026732D01*
X2651300Y-5030432D01*
X2652500Y-5032932D01*
X2653800Y-5034232D01*
X2657500Y-5035432D01*
X2668800Y-5035432D01*
X2643000Y-5021732D02*
G01*
X2643000Y-5048031D01*
X2643000Y-5021732D02*
G01*
X2631700Y-5021732D01*
X2628000Y-5022932D01*
X2626700Y-5024232D01*
X2625500Y-5026732D01*
X2625500Y-5029232D01*
X2626700Y-5031732D01*
X2628000Y-5032932D01*
X2631700Y-5034232D01*
X2643000Y-5034232D02*
G01*
X2631700Y-5034232D01*
X2628000Y-5035432D01*
X2626700Y-5036732D01*
X2625500Y-5039232D01*
X2625500Y-5043031D01*
X2626700Y-5045531D01*
X2628000Y-5046732D01*
X2631700Y-5048031D01*
X2643000Y-5048031D01*
X2617200Y-5036732D02*
G01*
X2594600Y-5036732D01*
X2586400Y-5026732D02*
G01*
X2583900Y-5025432D01*
X2580100Y-5021732D01*
X2580100Y-5048031D01*
X2564300Y-5021732D02*
G01*
X2568100Y-5022932D01*
X2570600Y-5026732D01*
X2571800Y-5032932D01*
X2571800Y-5036732D01*
X2570600Y-5043031D01*
X2568100Y-5046732D01*
X2564300Y-5048031D01*
X2561800Y-5048031D01*
X2558100Y-5046732D01*
X2555600Y-5043031D01*
X2554300Y-5036732D01*
X2554300Y-5032932D01*
X2555600Y-5026732D01*
X2558100Y-5022932D01*
X2561800Y-5021732D01*
X2564300Y-5021732D01*
X2657500Y-4920731D02*
G01*
X2657500Y-4947031D01*
X2657500Y-4920731D02*
G01*
X2646199Y-4920731D01*
X2642500Y-4921932D01*
X2641199Y-4923231D01*
X2640000Y-4925731D01*
X2640000Y-4929432D01*
X2641199Y-4931932D01*
X2642500Y-4933231D01*
X2646199Y-4934432D01*
X2657500Y-4934432D01*
X2631700Y-4920731D02*
G01*
X2631700Y-4947031D01*
X2631700Y-4920731D02*
G01*
X2620399Y-4920731D01*
X2616700Y-4921932D01*
X2615399Y-4923231D01*
X2614200Y-4925731D01*
X2614200Y-4928231D01*
X2615399Y-4930731D01*
X2616700Y-4931932D01*
X2620399Y-4933231D01*
X2631700Y-4933231D02*
G01*
X2620399Y-4933231D01*
X2616700Y-4934432D01*
X2615399Y-4935731D01*
X2614200Y-4938231D01*
X2614200Y-4942031D01*
X2615399Y-4944531D01*
X2616700Y-4945731D01*
X2620399Y-4947031D01*
X2631700Y-4947031D01*
X2605900Y-4935731D02*
G01*
X2583299Y-4935731D01*
X2575100Y-4925731D02*
G01*
X2572600Y-4924432D01*
X2568800Y-4920731D01*
X2568800Y-4947031D01*
X2560500Y-4925731D02*
G01*
X2558000Y-4924432D01*
X2554300Y-4920731D01*
X2554300Y-4947031D01*
X2623400Y-4819731D02*
G01*
X2623400Y-4846032D01*
X2623400Y-4819731D02*
G01*
X2612100Y-4819731D01*
X2608400Y-4820931D01*
X2607100Y-4822231D01*
X2605900Y-4824731D01*
X2605900Y-4827231D01*
X2607100Y-4829731D01*
X2608400Y-4830931D01*
X2612100Y-4832231D01*
X2623400Y-4832231D01*
X2614600Y-4832231D02*
G01*
X2605900Y-4846032D01*
X2580100Y-4823431D02*
G01*
X2582600Y-4820931D01*
X2586300Y-4819731D01*
X2591300Y-4819731D01*
X2595100Y-4820931D01*
X2597600Y-4823431D01*
X2597600Y-4825931D01*
X2596300Y-4828431D01*
X2595100Y-4829731D01*
X2592600Y-4830931D01*
X2585100Y-4833431D01*
X2582600Y-4834731D01*
X2581300Y-4836032D01*
X2580100Y-4838532D01*
X2580100Y-4842231D01*
X2582600Y-4844731D01*
X2586300Y-4846032D01*
X2591300Y-4846032D01*
X2595100Y-4844731D01*
X2597600Y-4842231D01*
X2563000Y-4819731D02*
G01*
X2563000Y-4846032D01*
X2571800Y-4819731D02*
G01*
X2554300Y-4819731D01*
X2656199Y-4726432D02*
G01*
X2656199Y-4749032D01*
X2667500Y-4737732D02*
G01*
X2645000Y-4737732D01*
X2634200Y-4722732D02*
G01*
X2620399Y-4722732D01*
X2627899Y-4732732D01*
X2624200Y-4732732D01*
X2621700Y-4733932D01*
X2620399Y-4735232D01*
X2619099Y-4739032D01*
X2619099Y-4741532D01*
X2620399Y-4745232D01*
X2622899Y-4747732D01*
X2626700Y-4749032D01*
X2630399Y-4749032D01*
X2634200Y-4747732D01*
X2635399Y-4746532D01*
X2636700Y-4744032D01*
X2609600Y-4742732D02*
G01*
X2610900Y-4744032D01*
X2609600Y-4745232D01*
X2608400Y-4744032D01*
X2609600Y-4742732D01*
X2597600Y-4722732D02*
G01*
X2583800Y-4722732D01*
X2591300Y-4732732D01*
X2587600Y-4732732D01*
X2585100Y-4733932D01*
X2583800Y-4735232D01*
X2582600Y-4739032D01*
X2582600Y-4741532D01*
X2583800Y-4745232D01*
X2586300Y-4747732D01*
X2590100Y-4749032D01*
X2593800Y-4749032D01*
X2597600Y-4747732D01*
X2598900Y-4746532D01*
X2600100Y-4744032D01*
X2574300Y-4722732D02*
G01*
X2564300Y-4749032D01*
X2554300Y-4722732D02*
G01*
X2564300Y-4749032D01*
X2605900Y-4630931D02*
G01*
X2607200Y-4628431D01*
X2609700Y-4625931D01*
X2612200Y-4624731D01*
X2617200Y-4624731D01*
X2619700Y-4625931D01*
X2622200Y-4628431D01*
X2623400Y-4630931D01*
X2624700Y-4634731D01*
X2624700Y-4641032D01*
X2623400Y-4644731D01*
X2622200Y-4647231D01*
X2619700Y-4649731D01*
X2617200Y-4651032D01*
X2612200Y-4651032D01*
X2609700Y-4649731D01*
X2607200Y-4647231D01*
X2605900Y-4644731D01*
X2605900Y-4641032D01*
X2612200Y-4641032D02*
G01*
X2605900Y-4641032D01*
X2597600Y-4624731D02*
G01*
X2597600Y-4651032D01*
X2597600Y-4624731D02*
G01*
X2580100Y-4651032D01*
X2580100Y-4624731D02*
G01*
X2580100Y-4651032D01*
X2571800Y-4624731D02*
G01*
X2571800Y-4651032D01*
X2571800Y-4624731D02*
G01*
X2563100Y-4624731D01*
X2559300Y-4625931D01*
X2556800Y-4628431D01*
X2555600Y-4630931D01*
X2554300Y-4634731D01*
X2554300Y-4641032D01*
X2555600Y-4644731D01*
X2556800Y-4647231D01*
X2559300Y-4649731D01*
X2563100Y-4651032D01*
X2571800Y-4651032D01*
X2605900Y-4529931D02*
G01*
X2607200Y-4527431D01*
X2609700Y-4524931D01*
X2612200Y-4523732D01*
X2617200Y-4523732D01*
X2619700Y-4524931D01*
X2622200Y-4527431D01*
X2623400Y-4529931D01*
X2624700Y-4533732D01*
X2624700Y-4540032D01*
X2623400Y-4543732D01*
X2622200Y-4546232D01*
X2619700Y-4548732D01*
X2617200Y-4550032D01*
X2612200Y-4550032D01*
X2609700Y-4548732D01*
X2607200Y-4546232D01*
X2605900Y-4543732D01*
X2605900Y-4540032D01*
X2612200Y-4540032D02*
G01*
X2605900Y-4540032D01*
X2597600Y-4523732D02*
G01*
X2597600Y-4550032D01*
X2597600Y-4523732D02*
G01*
X2580100Y-4550032D01*
X2580100Y-4523732D02*
G01*
X2580100Y-4550032D01*
X2571800Y-4523732D02*
G01*
X2571800Y-4550032D01*
X2571800Y-4523732D02*
G01*
X2563100Y-4523732D01*
X2559300Y-4524931D01*
X2556800Y-4527431D01*
X2555600Y-4529931D01*
X2554300Y-4533732D01*
X2554300Y-4540032D01*
X2555600Y-4543732D01*
X2556800Y-4546232D01*
X2559300Y-4548732D01*
X2563100Y-4550032D01*
X2571800Y-4550032D01*
X3027500Y-6432431D02*
G01*
X3027500Y-6455032D01*
X3038800Y-6443732D02*
G01*
X3016300Y-6443732D01*
X3005500Y-6428732D02*
G01*
X2991700Y-6428732D01*
X2999200Y-6438732D01*
X2995500Y-6438732D01*
X2993000Y-6439931D01*
X2991700Y-6441232D01*
X2990399Y-6445032D01*
X2990399Y-6447532D01*
X2991700Y-6451232D01*
X2994200Y-6453732D01*
X2998000Y-6455032D01*
X3001700Y-6455032D01*
X3005500Y-6453732D01*
X3006700Y-6452532D01*
X3008000Y-6450032D01*
X2980900Y-6448732D02*
G01*
X2982200Y-6450032D01*
X2980900Y-6451232D01*
X2979700Y-6450032D01*
X2980900Y-6448732D01*
X2968900Y-6428732D02*
G01*
X2955100Y-6428732D01*
X2962600Y-6438732D01*
X2958900Y-6438732D01*
X2956400Y-6439931D01*
X2955100Y-6441232D01*
X2953900Y-6445032D01*
X2953900Y-6447532D01*
X2955100Y-6451232D01*
X2957600Y-6453732D01*
X2961400Y-6455032D01*
X2965100Y-6455032D01*
X2968900Y-6453732D01*
X2970200Y-6452532D01*
X2971400Y-6450032D01*
X2945600Y-6428732D02*
G01*
X2935600Y-6455032D01*
X2925600Y-6428732D02*
G01*
X2935600Y-6455032D01*
X3020000Y-6335931D02*
G01*
X3021300Y-6333431D01*
X3023800Y-6330931D01*
X3026300Y-6329731D01*
X3031300Y-6329731D01*
X3033800Y-6330931D01*
X3036300Y-6333431D01*
X3037500Y-6335931D01*
X3038800Y-6339731D01*
X3038800Y-6346032D01*
X3037500Y-6349731D01*
X3036300Y-6352231D01*
X3033800Y-6354731D01*
X3031300Y-6356032D01*
X3026300Y-6356032D01*
X3023800Y-6354731D01*
X3021300Y-6352231D01*
X3020000Y-6349731D01*
X3020000Y-6346032D01*
X3026300Y-6346032D02*
G01*
X3020000Y-6346032D01*
X3011700Y-6329731D02*
G01*
X3011700Y-6356032D01*
X3011700Y-6329731D02*
G01*
X2994200Y-6356032D01*
X2994200Y-6329731D02*
G01*
X2994200Y-6356032D01*
X2985900Y-6329731D02*
G01*
X2985900Y-6356032D01*
X2985900Y-6329731D02*
G01*
X2977200Y-6329731D01*
X2973400Y-6330931D01*
X2970900Y-6333431D01*
X2969700Y-6335931D01*
X2968400Y-6339731D01*
X2968400Y-6346032D01*
X2969700Y-6349731D01*
X2970900Y-6352231D01*
X2973400Y-6354731D01*
X2977200Y-6356032D01*
X2985900Y-6356032D01*
X3027500Y-6235432D02*
G01*
X3027500Y-6258031D01*
X3038800Y-6246732D02*
G01*
X3016300Y-6246732D01*
X2993000Y-6231732D02*
G01*
X3005500Y-6231732D01*
X3006700Y-6242932D01*
X3005500Y-6241732D01*
X3001700Y-6240432D01*
X2998000Y-6240432D01*
X2994200Y-6241732D01*
X2991700Y-6244232D01*
X2990399Y-6248031D01*
X2990399Y-6250531D01*
X2991700Y-6254232D01*
X2994200Y-6256732D01*
X2998000Y-6258031D01*
X3001700Y-6258031D01*
X3005500Y-6256732D01*
X3006700Y-6255531D01*
X3008000Y-6253031D01*
X2982200Y-6231732D02*
G01*
X2972200Y-6258031D01*
X2962100Y-6231732D02*
G01*
X2972200Y-6258031D01*
X3038800Y-6130731D02*
G01*
X3038800Y-6157031D01*
X3038800Y-6130731D02*
G01*
X3027500Y-6130731D01*
X3023800Y-6131932D01*
X3022500Y-6133231D01*
X3021300Y-6135731D01*
X3021300Y-6139432D01*
X3022500Y-6141932D01*
X3023800Y-6143231D01*
X3027500Y-6144432D01*
X3038800Y-6144432D01*
X3013000Y-6130731D02*
G01*
X3013000Y-6157031D01*
X3013000Y-6130731D02*
G01*
X3001700Y-6130731D01*
X2998000Y-6131932D01*
X2996700Y-6133231D01*
X2995500Y-6135731D01*
X2995500Y-6138231D01*
X2996700Y-6140731D01*
X2998000Y-6141932D01*
X3001700Y-6143231D01*
X3013000Y-6143231D02*
G01*
X3001700Y-6143231D01*
X2998000Y-6144432D01*
X2996700Y-6145731D01*
X2995500Y-6148231D01*
X2995500Y-6152031D01*
X2996700Y-6154531D01*
X2998000Y-6155731D01*
X3001700Y-6157031D01*
X3013000Y-6157031D01*
X2987200Y-6145731D02*
G01*
X2964600Y-6145731D01*
X2940100Y-6139432D02*
G01*
X2941300Y-6143231D01*
X2943800Y-6145731D01*
X2947600Y-6147031D01*
X2948900Y-6147031D01*
X2952600Y-6145731D01*
X2955100Y-6143231D01*
X2956400Y-6139432D01*
X2956400Y-6138231D01*
X2955100Y-6134432D01*
X2952600Y-6131932D01*
X2948900Y-6130731D01*
X2947600Y-6130731D01*
X2943800Y-6131932D01*
X2941300Y-6134432D01*
X2940100Y-6139432D01*
X2940100Y-6145731D01*
X2941300Y-6152031D01*
X2943800Y-6155731D01*
X2947600Y-6157031D01*
X2950100Y-6157031D01*
X2953900Y-6155731D01*
X2955100Y-6153231D01*
X3038800Y-6029731D02*
G01*
X3038800Y-6056032D01*
X3038800Y-6029731D02*
G01*
X3027500Y-6029731D01*
X3023800Y-6030931D01*
X3022500Y-6032231D01*
X3021300Y-6034731D01*
X3021300Y-6038431D01*
X3022500Y-6040931D01*
X3023800Y-6042231D01*
X3027500Y-6043431D01*
X3038800Y-6043431D01*
X3013000Y-6029731D02*
G01*
X3013000Y-6056032D01*
X3013000Y-6029731D02*
G01*
X3001700Y-6029731D01*
X2998000Y-6030931D01*
X2996700Y-6032231D01*
X2995500Y-6034731D01*
X2995500Y-6037231D01*
X2996700Y-6039731D01*
X2998000Y-6040931D01*
X3001700Y-6042231D01*
X3013000Y-6042231D02*
G01*
X3001700Y-6042231D01*
X2998000Y-6043431D01*
X2996700Y-6044731D01*
X2995500Y-6047231D01*
X2995500Y-6051032D01*
X2996700Y-6053532D01*
X2998000Y-6054731D01*
X3001700Y-6056032D01*
X3013000Y-6056032D01*
X2987200Y-6044731D02*
G01*
X2964600Y-6044731D01*
X2950100Y-6029731D02*
G01*
X2953900Y-6030931D01*
X2955100Y-6033431D01*
X2955100Y-6035931D01*
X2953900Y-6038431D01*
X2951400Y-6039731D01*
X2946300Y-6040931D01*
X2942600Y-6042231D01*
X2940100Y-6044731D01*
X2938800Y-6047231D01*
X2938800Y-6051032D01*
X2940100Y-6053532D01*
X2941300Y-6054731D01*
X2945100Y-6056032D01*
X2950100Y-6056032D01*
X2953900Y-6054731D01*
X2955100Y-6053532D01*
X2956400Y-6051032D01*
X2956400Y-6047231D01*
X2955100Y-6044731D01*
X2952600Y-6042231D01*
X2948900Y-6040931D01*
X2943800Y-6039731D01*
X2941300Y-6038431D01*
X2940100Y-6035931D01*
X2940100Y-6033431D01*
X2941300Y-6030931D01*
X2945100Y-6029731D01*
X2950100Y-6029731D01*
X3038800Y-5923732D02*
G01*
X3038800Y-5950032D01*
X3038800Y-5923732D02*
G01*
X3027500Y-5923732D01*
X3023800Y-5924931D01*
X3022500Y-5926232D01*
X3021300Y-5928732D01*
X3021300Y-5932431D01*
X3022500Y-5934931D01*
X3023800Y-5936232D01*
X3027500Y-5937431D01*
X3038800Y-5937431D01*
X3013000Y-5923732D02*
G01*
X3013000Y-5950032D01*
X3013000Y-5923732D02*
G01*
X3001700Y-5923732D01*
X2998000Y-5924931D01*
X2996700Y-5926232D01*
X2995500Y-5928732D01*
X2995500Y-5931232D01*
X2996700Y-5933732D01*
X2998000Y-5934931D01*
X3001700Y-5936232D01*
X3013000Y-5936232D02*
G01*
X3001700Y-5936232D01*
X2998000Y-5937431D01*
X2996700Y-5938732D01*
X2995500Y-5941232D01*
X2995500Y-5945032D01*
X2996700Y-5947532D01*
X2998000Y-5948732D01*
X3001700Y-5950032D01*
X3013000Y-5950032D01*
X2987200Y-5938732D02*
G01*
X2964600Y-5938732D01*
X2938800Y-5923732D02*
G01*
X2951400Y-5950032D01*
X2956400Y-5923732D02*
G01*
X2938800Y-5923732D01*
X3038800Y-5825731D02*
G01*
X3038800Y-5852031D01*
X3038800Y-5825731D02*
G01*
X3027500Y-5825731D01*
X3023800Y-5826932D01*
X3022500Y-5828231D01*
X3021300Y-5830731D01*
X3021300Y-5834432D01*
X3022500Y-5836932D01*
X3023800Y-5838231D01*
X3027500Y-5839432D01*
X3038800Y-5839432D01*
X3013000Y-5825731D02*
G01*
X3013000Y-5852031D01*
X3013000Y-5825731D02*
G01*
X3001700Y-5825731D01*
X2998000Y-5826932D01*
X2996700Y-5828231D01*
X2995500Y-5830731D01*
X2995500Y-5833231D01*
X2996700Y-5835731D01*
X2998000Y-5836932D01*
X3001700Y-5838231D01*
X3013000Y-5838231D02*
G01*
X3001700Y-5838231D01*
X2998000Y-5839432D01*
X2996700Y-5840731D01*
X2995500Y-5843231D01*
X2995500Y-5847031D01*
X2996700Y-5849531D01*
X2998000Y-5850731D01*
X3001700Y-5852031D01*
X3013000Y-5852031D01*
X2987200Y-5840731D02*
G01*
X2964600Y-5840731D01*
X2941300Y-5829432D02*
G01*
X2942600Y-5826932D01*
X2946400Y-5825731D01*
X2948900Y-5825731D01*
X2952600Y-5826932D01*
X2955100Y-5830731D01*
X2956400Y-5836932D01*
X2956400Y-5843231D01*
X2955100Y-5848231D01*
X2952600Y-5850731D01*
X2948900Y-5852031D01*
X2947600Y-5852031D01*
X2943800Y-5850731D01*
X2941300Y-5848231D01*
X2940100Y-5844531D01*
X2940100Y-5843231D01*
X2941300Y-5839432D01*
X2943800Y-5836932D01*
X2947600Y-5835731D01*
X2948900Y-5835731D01*
X2952600Y-5836932D01*
X2955100Y-5839432D01*
X2956400Y-5843231D01*
X3038800Y-5724731D02*
G01*
X3038800Y-5751032D01*
X3038800Y-5724731D02*
G01*
X3027500Y-5724731D01*
X3023800Y-5725931D01*
X3022500Y-5727231D01*
X3021300Y-5729731D01*
X3021300Y-5733431D01*
X3022500Y-5735931D01*
X3023800Y-5737231D01*
X3027500Y-5738431D01*
X3038800Y-5738431D01*
X3013000Y-5724731D02*
G01*
X3013000Y-5751032D01*
X3013000Y-5724731D02*
G01*
X3001700Y-5724731D01*
X2998000Y-5725931D01*
X2996700Y-5727231D01*
X2995500Y-5729731D01*
X2995500Y-5732231D01*
X2996700Y-5734731D01*
X2998000Y-5735931D01*
X3001700Y-5737231D01*
X3013000Y-5737231D02*
G01*
X3001700Y-5737231D01*
X2998000Y-5738431D01*
X2996700Y-5739731D01*
X2995500Y-5742231D01*
X2995500Y-5746032D01*
X2996700Y-5748532D01*
X2998000Y-5749731D01*
X3001700Y-5751032D01*
X3013000Y-5751032D01*
X2987200Y-5739731D02*
G01*
X2964600Y-5739731D01*
X2941300Y-5724731D02*
G01*
X2953900Y-5724731D01*
X2955100Y-5735931D01*
X2953900Y-5734731D01*
X2950100Y-5733431D01*
X2946400Y-5733431D01*
X2942600Y-5734731D01*
X2940100Y-5737231D01*
X2938800Y-5741032D01*
X2938800Y-5743532D01*
X2940100Y-5747231D01*
X2942600Y-5749731D01*
X2946400Y-5751032D01*
X2950100Y-5751032D01*
X2953900Y-5749731D01*
X2955100Y-5748532D01*
X2956400Y-5746032D01*
X3038800Y-5623732D02*
G01*
X3038800Y-5650032D01*
X3038800Y-5623732D02*
G01*
X3027500Y-5623732D01*
X3023800Y-5624931D01*
X3022500Y-5626232D01*
X3021300Y-5628732D01*
X3021300Y-5632431D01*
X3022500Y-5634931D01*
X3023800Y-5636232D01*
X3027500Y-5637431D01*
X3038800Y-5637431D01*
X3013000Y-5623732D02*
G01*
X3013000Y-5650032D01*
X3013000Y-5623732D02*
G01*
X3001700Y-5623732D01*
X2998000Y-5624931D01*
X2996700Y-5626232D01*
X2995500Y-5628732D01*
X2995500Y-5631232D01*
X2996700Y-5633732D01*
X2998000Y-5634931D01*
X3001700Y-5636232D01*
X3013000Y-5636232D02*
G01*
X3001700Y-5636232D01*
X2998000Y-5637431D01*
X2996700Y-5638732D01*
X2995500Y-5641232D01*
X2995500Y-5645032D01*
X2996700Y-5647532D01*
X2998000Y-5648732D01*
X3001700Y-5650032D01*
X3013000Y-5650032D01*
X2987200Y-5638732D02*
G01*
X2964600Y-5638732D01*
X2943800Y-5623732D02*
G01*
X2956400Y-5641232D01*
X2937600Y-5641232D01*
X2943800Y-5623732D02*
G01*
X2943800Y-5650032D01*
X3038800Y-5523732D02*
G01*
X3038800Y-5550032D01*
X3038800Y-5523732D02*
G01*
X3027500Y-5523732D01*
X3023800Y-5524931D01*
X3022500Y-5526232D01*
X3021300Y-5528732D01*
X3021300Y-5532431D01*
X3022500Y-5534931D01*
X3023800Y-5536232D01*
X3027500Y-5537431D01*
X3038800Y-5537431D01*
X3013000Y-5523732D02*
G01*
X3013000Y-5550032D01*
X3013000Y-5523732D02*
G01*
X3001700Y-5523732D01*
X2998000Y-5524931D01*
X2996700Y-5526232D01*
X2995500Y-5528732D01*
X2995500Y-5531232D01*
X2996700Y-5533732D01*
X2998000Y-5534931D01*
X3001700Y-5536232D01*
X3013000Y-5536232D02*
G01*
X3001700Y-5536232D01*
X2998000Y-5537431D01*
X2996700Y-5538732D01*
X2995500Y-5541232D01*
X2995500Y-5545032D01*
X2996700Y-5547532D01*
X2998000Y-5548732D01*
X3001700Y-5550032D01*
X3013000Y-5550032D01*
X2987200Y-5538732D02*
G01*
X2964600Y-5538732D01*
X2953900Y-5523732D02*
G01*
X2940100Y-5523732D01*
X2947600Y-5533732D01*
X2943800Y-5533732D01*
X2941300Y-5534931D01*
X2940100Y-5536232D01*
X2938800Y-5540032D01*
X2938800Y-5542532D01*
X2940100Y-5546232D01*
X2942600Y-5548732D01*
X2946400Y-5550032D01*
X2950100Y-5550032D01*
X2953900Y-5548732D01*
X2955100Y-5547532D01*
X2956400Y-5545032D01*
X3038800Y-5425731D02*
G01*
X3038800Y-5452031D01*
X3038800Y-5425731D02*
G01*
X3027500Y-5425731D01*
X3023800Y-5426932D01*
X3022500Y-5428231D01*
X3021300Y-5430731D01*
X3021300Y-5434432D01*
X3022500Y-5436932D01*
X3023800Y-5438231D01*
X3027500Y-5439432D01*
X3038800Y-5439432D01*
X3003000Y-5425731D02*
G01*
X3013000Y-5452031D01*
X3003000Y-5425731D02*
G01*
X2993000Y-5452031D01*
X3009200Y-5443231D02*
G01*
X2996700Y-5443231D01*
X2984700Y-5440731D02*
G01*
X2962100Y-5440731D01*
X2938800Y-5425731D02*
G01*
X2951400Y-5425731D01*
X2952600Y-5436932D01*
X2951400Y-5435731D01*
X2947600Y-5434432D01*
X2943800Y-5434432D01*
X2940100Y-5435731D01*
X2937600Y-5438231D01*
X2936300Y-5442031D01*
X2936300Y-5444531D01*
X2937600Y-5448231D01*
X2940100Y-5450731D01*
X2943800Y-5452031D01*
X2947600Y-5452031D01*
X2951400Y-5450731D01*
X2952600Y-5449531D01*
X2953900Y-5447031D01*
X3038800Y-5324731D02*
G01*
X3038800Y-5351032D01*
X3038800Y-5324731D02*
G01*
X3027500Y-5324731D01*
X3023800Y-5325931D01*
X3022500Y-5327231D01*
X3021300Y-5329731D01*
X3021300Y-5333431D01*
X3022500Y-5335931D01*
X3023800Y-5337231D01*
X3027500Y-5338431D01*
X3038800Y-5338431D01*
X3003000Y-5324731D02*
G01*
X3013000Y-5351032D01*
X3003000Y-5324731D02*
G01*
X2993000Y-5351032D01*
X3009200Y-5342231D02*
G01*
X2996700Y-5342231D01*
X2984700Y-5339731D02*
G01*
X2962100Y-5339731D01*
X2953900Y-5329731D02*
G01*
X2951400Y-5328431D01*
X2947600Y-5324731D01*
X2947600Y-5351032D01*
X2938100Y-5330931D02*
G01*
X2938100Y-5329731D01*
X2936800Y-5327231D01*
X2935600Y-5325931D01*
X2933100Y-5324731D01*
X2928100Y-5324731D01*
X2925600Y-5325931D01*
X2924300Y-5327231D01*
X2923100Y-5329731D01*
X2923100Y-5332231D01*
X2924300Y-5334731D01*
X2926800Y-5338431D01*
X2939300Y-5351032D01*
X2921800Y-5351032D01*
X3038800Y-5223732D02*
G01*
X3038800Y-5250032D01*
X3038800Y-5223732D02*
G01*
X3027500Y-5223732D01*
X3023800Y-5224931D01*
X3022500Y-5226232D01*
X3021300Y-5228732D01*
X3021300Y-5232431D01*
X3022500Y-5234931D01*
X3023800Y-5236232D01*
X3027500Y-5237431D01*
X3038800Y-5237431D01*
X3003000Y-5223732D02*
G01*
X3013000Y-5250032D01*
X3003000Y-5223732D02*
G01*
X2993000Y-5250032D01*
X3009200Y-5241232D02*
G01*
X2996700Y-5241232D01*
X2984700Y-5238732D02*
G01*
X2962100Y-5238732D01*
X2953900Y-5228732D02*
G01*
X2951400Y-5227431D01*
X2947600Y-5223732D01*
X2947600Y-5250032D01*
X2939300Y-5228732D02*
G01*
X2936800Y-5227431D01*
X2933100Y-5223732D01*
X2933100Y-5250032D01*
X3038800Y-5123732D02*
G01*
X3038800Y-5150032D01*
X3038800Y-5123732D02*
G01*
X3027500Y-5123732D01*
X3023800Y-5124931D01*
X3022500Y-5126232D01*
X3021300Y-5128732D01*
X3021300Y-5132431D01*
X3022500Y-5134931D01*
X3023800Y-5136232D01*
X3027500Y-5137431D01*
X3038800Y-5137431D01*
X3003000Y-5123732D02*
G01*
X3013000Y-5150032D01*
X3003000Y-5123732D02*
G01*
X2993000Y-5150032D01*
X3009200Y-5141232D02*
G01*
X2996700Y-5141232D01*
X2984700Y-5138732D02*
G01*
X2962100Y-5138732D01*
X2953900Y-5128732D02*
G01*
X2951400Y-5127431D01*
X2947600Y-5123732D01*
X2947600Y-5150032D01*
X2931800Y-5123732D02*
G01*
X2935600Y-5124931D01*
X2938100Y-5128732D01*
X2939300Y-5134931D01*
X2939300Y-5138732D01*
X2938100Y-5145032D01*
X2935600Y-5148732D01*
X2931800Y-5150032D01*
X2929300Y-5150032D01*
X2925600Y-5148732D01*
X2923100Y-5145032D01*
X2921800Y-5138732D01*
X2921800Y-5134931D01*
X2923100Y-5128732D01*
X2925600Y-5124931D01*
X2929300Y-5123732D01*
X2931800Y-5123732D01*
X3038800Y-5025731D02*
G01*
X3038800Y-5052031D01*
X3038800Y-5025731D02*
G01*
X3027500Y-5025731D01*
X3023800Y-5026932D01*
X3022500Y-5028231D01*
X3021300Y-5030731D01*
X3021300Y-5034432D01*
X3022500Y-5036932D01*
X3023800Y-5038231D01*
X3027500Y-5039432D01*
X3038800Y-5039432D01*
X3003000Y-5025731D02*
G01*
X3013000Y-5052031D01*
X3003000Y-5025731D02*
G01*
X2993000Y-5052031D01*
X3009200Y-5043231D02*
G01*
X2996700Y-5043231D01*
X2984700Y-5040731D02*
G01*
X2962100Y-5040731D01*
X2937600Y-5034432D02*
G01*
X2938800Y-5038231D01*
X2941300Y-5040731D01*
X2945100Y-5042031D01*
X2946400Y-5042031D01*
X2950100Y-5040731D01*
X2952600Y-5038231D01*
X2953900Y-5034432D01*
X2953900Y-5033231D01*
X2952600Y-5029432D01*
X2950100Y-5026932D01*
X2946400Y-5025731D01*
X2945100Y-5025731D01*
X2941300Y-5026932D01*
X2938800Y-5029432D01*
X2937600Y-5034432D01*
X2937600Y-5040731D01*
X2938800Y-5047031D01*
X2941300Y-5050731D01*
X2945100Y-5052031D01*
X2947600Y-5052031D01*
X2951400Y-5050731D01*
X2952600Y-5048231D01*
X3038800Y-4924731D02*
G01*
X3038800Y-4951032D01*
X3038800Y-4924731D02*
G01*
X3027500Y-4924731D01*
X3023800Y-4925931D01*
X3022500Y-4927231D01*
X3021300Y-4929731D01*
X3021300Y-4933431D01*
X3022500Y-4935931D01*
X3023800Y-4937231D01*
X3027500Y-4938431D01*
X3038800Y-4938431D01*
X3003000Y-4924731D02*
G01*
X3013000Y-4951032D01*
X3003000Y-4924731D02*
G01*
X2993000Y-4951032D01*
X3009200Y-4942231D02*
G01*
X2996700Y-4942231D01*
X2984700Y-4939731D02*
G01*
X2962100Y-4939731D01*
X2947600Y-4924731D02*
G01*
X2951400Y-4925931D01*
X2952600Y-4928431D01*
X2952600Y-4930931D01*
X2951400Y-4933431D01*
X2948900Y-4934731D01*
X2943800Y-4935931D01*
X2940100Y-4937231D01*
X2937600Y-4939731D01*
X2936300Y-4942231D01*
X2936300Y-4946032D01*
X2937600Y-4948532D01*
X2938800Y-4949731D01*
X2942600Y-4951032D01*
X2947600Y-4951032D01*
X2951400Y-4949731D01*
X2952600Y-4948532D01*
X2953900Y-4946032D01*
X2953900Y-4942231D01*
X2952600Y-4939731D01*
X2950100Y-4937231D01*
X2946400Y-4935931D01*
X2941300Y-4934731D01*
X2938800Y-4933431D01*
X2937600Y-4930931D01*
X2937600Y-4928431D01*
X2938800Y-4925931D01*
X2942600Y-4924731D01*
X2947600Y-4924731D01*
X3036300Y-4823732D02*
G01*
X3036300Y-4850032D01*
X3036300Y-4823732D02*
G01*
X3025000Y-4823732D01*
X3021300Y-4824931D01*
X3020000Y-4826232D01*
X3018800Y-4828732D01*
X3018800Y-4832431D01*
X3020000Y-4834931D01*
X3021300Y-4836232D01*
X3025000Y-4837431D01*
X3036300Y-4837431D01*
X3010500Y-4823732D02*
G01*
X3010500Y-4850032D01*
X3010500Y-4823732D02*
G01*
X2999200Y-4823732D01*
X2995500Y-4824931D01*
X2994200Y-4826232D01*
X2993000Y-4828732D01*
X2993000Y-4831232D01*
X2994200Y-4833732D01*
X2995500Y-4834931D01*
X2999200Y-4836232D01*
X3010500Y-4836232D02*
G01*
X2999200Y-4836232D01*
X2995500Y-4837431D01*
X2994200Y-4838732D01*
X2993000Y-4841232D01*
X2993000Y-4845032D01*
X2994200Y-4847532D01*
X2995500Y-4848732D01*
X2999200Y-4850032D01*
X3010500Y-4850032D01*
X2984700Y-4838732D02*
G01*
X2962100Y-4838732D01*
X2953900Y-4828732D02*
G01*
X2951400Y-4827431D01*
X2947600Y-4823732D01*
X2947600Y-4850032D01*
X2924300Y-4823732D02*
G01*
X2936800Y-4823732D01*
X2938100Y-4834931D01*
X2936800Y-4833732D01*
X2933100Y-4832431D01*
X2929300Y-4832431D01*
X2925600Y-4833732D01*
X2923100Y-4836232D01*
X2921800Y-4840032D01*
X2921800Y-4842532D01*
X2923100Y-4846232D01*
X2925600Y-4848732D01*
X2929300Y-4850032D01*
X2933100Y-4850032D01*
X2936800Y-4848732D01*
X2938100Y-4847532D01*
X2939300Y-4845032D01*
X3037500Y-4726732D02*
G01*
X3037500Y-4753031D01*
X3037500Y-4726732D02*
G01*
X3026199Y-4726732D01*
X3022500Y-4727932D01*
X3021199Y-4729232D01*
X3020000Y-4731732D01*
X3020000Y-4735432D01*
X3021199Y-4737932D01*
X3022500Y-4739232D01*
X3026199Y-4740432D01*
X3037500Y-4740432D01*
X3011700Y-4726732D02*
G01*
X3011700Y-4753031D01*
X3011700Y-4726732D02*
G01*
X3000399Y-4726732D01*
X2996700Y-4727932D01*
X2995399Y-4729232D01*
X2994200Y-4731732D01*
X2994200Y-4734232D01*
X2995399Y-4736732D01*
X2996700Y-4737932D01*
X3000399Y-4739232D01*
X3011700Y-4739232D02*
G01*
X3000399Y-4739232D01*
X2996700Y-4740432D01*
X2995399Y-4741732D01*
X2994200Y-4744232D01*
X2994200Y-4748031D01*
X2995399Y-4750531D01*
X2996700Y-4751732D01*
X3000399Y-4753031D01*
X3011700Y-4753031D01*
X2985900Y-4741732D02*
G01*
X2963299Y-4741732D01*
X2955100Y-4731732D02*
G01*
X2952600Y-4730432D01*
X2948800Y-4726732D01*
X2948800Y-4753031D01*
X2928000Y-4726732D02*
G01*
X2940500Y-4744232D01*
X2921800Y-4744232D01*
X2928000Y-4726732D02*
G01*
X2928000Y-4753031D01*
X3036300Y-4628732D02*
G01*
X3036300Y-4655032D01*
X3036300Y-4628732D02*
G01*
X3025000Y-4628732D01*
X3021300Y-4629931D01*
X3020000Y-4631232D01*
X3018800Y-4633732D01*
X3018800Y-4637431D01*
X3020000Y-4639931D01*
X3021300Y-4641232D01*
X3025000Y-4642431D01*
X3036300Y-4642431D01*
X3010500Y-4628732D02*
G01*
X3010500Y-4655032D01*
X3010500Y-4628732D02*
G01*
X2999200Y-4628732D01*
X2995500Y-4629931D01*
X2994200Y-4631232D01*
X2993000Y-4633732D01*
X2993000Y-4636232D01*
X2994200Y-4638732D01*
X2995500Y-4639931D01*
X2999200Y-4641232D01*
X3010500Y-4641232D02*
G01*
X2999200Y-4641232D01*
X2995500Y-4642431D01*
X2994200Y-4643732D01*
X2993000Y-4646232D01*
X2993000Y-4650032D01*
X2994200Y-4652532D01*
X2995500Y-4653732D01*
X2999200Y-4655032D01*
X3010500Y-4655032D01*
X2984700Y-4643732D02*
G01*
X2962100Y-4643732D01*
X2953900Y-4633732D02*
G01*
X2951400Y-4632431D01*
X2947600Y-4628732D01*
X2947600Y-4655032D01*
X2936800Y-4628732D02*
G01*
X2923100Y-4628732D01*
X2930600Y-4638732D01*
X2926800Y-4638732D01*
X2924300Y-4639931D01*
X2923100Y-4641232D01*
X2921800Y-4645032D01*
X2921800Y-4647532D01*
X2923100Y-4651232D01*
X2925600Y-4653732D01*
X2929300Y-4655032D01*
X2933100Y-4655032D01*
X2936800Y-4653732D01*
X2938100Y-4652532D01*
X2939300Y-4650032D01*
X3036300Y-4527732D02*
G01*
X3036300Y-4554032D01*
X3036300Y-4527732D02*
G01*
X3025000Y-4527732D01*
X3021300Y-4528932D01*
X3020000Y-4530232D01*
X3018800Y-4532732D01*
X3018800Y-4536432D01*
X3020000Y-4538932D01*
X3021300Y-4540232D01*
X3025000Y-4541432D01*
X3036300Y-4541432D01*
X3010500Y-4527732D02*
G01*
X3010500Y-4554032D01*
X3010500Y-4527732D02*
G01*
X2999200Y-4527732D01*
X2995500Y-4528932D01*
X2994200Y-4530232D01*
X2993000Y-4532732D01*
X2993000Y-4535232D01*
X2994200Y-4537732D01*
X2995500Y-4538932D01*
X2999200Y-4540232D01*
X3010500Y-4540232D02*
G01*
X2999200Y-4540232D01*
X2995500Y-4541432D01*
X2994200Y-4542732D01*
X2993000Y-4545232D01*
X2993000Y-4549032D01*
X2994200Y-4551532D01*
X2995500Y-4552732D01*
X2999200Y-4554032D01*
X3010500Y-4554032D01*
X2984700Y-4542732D02*
G01*
X2962100Y-4542732D01*
X2953900Y-4532732D02*
G01*
X2951400Y-4531432D01*
X2947600Y-4527732D01*
X2947600Y-4554032D01*
X2938100Y-4533932D02*
G01*
X2938100Y-4532732D01*
X2936800Y-4530232D01*
X2935600Y-4528932D01*
X2933100Y-4527732D01*
X2928100Y-4527732D01*
X2925600Y-4528932D01*
X2924300Y-4530232D01*
X2923100Y-4532732D01*
X2923100Y-4535232D01*
X2924300Y-4537732D01*
X2926800Y-4541432D01*
X2939300Y-4554032D01*
X2921800Y-4554032D01*
D24*
X2771599Y-5182631D02*
G01*
X2764300Y-5175331D01*
X2760699Y-5164432D01*
X2760699Y-5149931D01*
X2764300Y-5139032D01*
X2771599Y-5131732D01*
X2778800Y-5131732D01*
X2786099Y-5135331D01*
X2789799Y-5139032D01*
X2793400Y-5146232D01*
X2800699Y-5168132D01*
X2804300Y-5175331D01*
X2807899Y-5179032D01*
X2815200Y-5182631D01*
X2826099Y-5182631D01*
X2833400Y-5175331D01*
X2836999Y-5164432D01*
X2836999Y-5149931D01*
X2833400Y-5139032D01*
X2826099Y-5131732D01*
X2760699Y-5232132D02*
G01*
X2836999Y-5232132D01*
X2760699Y-5206632D02*
G01*
X2760699Y-5257532D01*
X2760699Y-5281532D02*
G01*
X2836999Y-5281532D01*
X2760699Y-5281532D02*
G01*
X2836999Y-5310632D01*
X2760699Y-5339731D02*
G01*
X2836999Y-5310632D01*
X2760699Y-5339731D02*
G01*
X2836999Y-5339731D01*
X2760699Y-5371032D02*
G01*
X2760699Y-5411032D01*
X2789799Y-5389232D01*
X2789799Y-5400131D01*
X2793400Y-5407332D01*
X2796999Y-5411032D01*
X2807899Y-5414632D01*
X2815200Y-5414632D01*
X2826099Y-5411032D01*
X2833400Y-5403732D01*
X2836999Y-5392831D01*
X2836999Y-5381932D01*
X2833400Y-5371032D01*
X2829799Y-5367332D01*
X2822500Y-5363732D01*
X2778800Y-5442231D02*
G01*
X2775200Y-5442231D01*
X2767899Y-5445931D01*
X2764300Y-5449531D01*
X2760699Y-5456831D01*
X2760699Y-5471332D01*
X2764300Y-5478631D01*
X2767899Y-5482231D01*
X2775200Y-5485931D01*
X2782500Y-5485931D01*
X2789799Y-5482231D01*
X2800699Y-5475032D01*
X2836999Y-5438631D01*
X2836999Y-5489531D01*
X2760699Y-5513532D02*
G01*
X2836999Y-5513532D01*
X2760699Y-5513532D02*
G01*
X2760699Y-5560832D01*
X2796999Y-5513532D02*
G01*
X2796999Y-5542631D01*
X2775200Y-5584832D02*
G01*
X2771599Y-5592132D01*
X2760699Y-5603031D01*
X2836999Y-5603031D01*
X2760699Y-5648832D02*
G01*
X2764300Y-5637932D01*
X2775200Y-5630632D01*
X2793400Y-5627031D01*
X2804300Y-5627031D01*
X2822500Y-5630632D01*
X2833400Y-5637932D01*
X2836999Y-5648832D01*
X2836999Y-5656131D01*
X2833400Y-5667031D01*
X2822500Y-5674232D01*
X2804300Y-5677932D01*
X2793400Y-5677932D01*
X2775200Y-5674232D01*
X2764300Y-5667031D01*
X2760699Y-5656131D01*
X2760699Y-5648832D01*
X2760699Y-5709232D02*
G01*
X2760699Y-5749232D01*
X2789799Y-5727332D01*
X2789799Y-5738231D01*
X2793400Y-5745531D01*
X2796999Y-5749232D01*
X2807899Y-5752831D01*
X2815200Y-5752831D01*
X2826099Y-5749232D01*
X2833400Y-5741932D01*
X2836999Y-5731032D01*
X2836999Y-5720131D01*
X2833400Y-5709232D01*
X2829799Y-5705531D01*
X2822500Y-5701932D01*
X2778800Y-5831332D02*
G01*
X2771599Y-5827732D01*
X2764300Y-5820432D01*
X2760699Y-5813231D01*
X2760699Y-5798631D01*
X2764300Y-5791332D01*
X2771599Y-5784132D01*
X2778800Y-5780432D01*
X2789799Y-5776831D01*
X2807899Y-5776831D01*
X2818800Y-5780432D01*
X2826099Y-5784132D01*
X2833400Y-5791332D01*
X2836999Y-5798631D01*
X2836999Y-5813231D01*
X2833400Y-5820432D01*
X2826099Y-5827732D01*
X2818800Y-5831332D01*
X2760699Y-5873532D02*
G01*
X2764300Y-5862631D01*
X2771599Y-5859032D01*
X2778800Y-5859032D01*
X2786099Y-5862631D01*
X2789799Y-5869931D01*
X2793400Y-5884432D01*
X2796999Y-5895331D01*
X2804300Y-5902631D01*
X2811599Y-5906232D01*
X2822500Y-5906232D01*
X2829799Y-5902631D01*
X2833400Y-5899032D01*
X2836999Y-5888132D01*
X2836999Y-5873532D01*
X2833400Y-5862631D01*
X2829799Y-5859032D01*
X2822500Y-5855331D01*
X2811599Y-5855331D01*
X2804300Y-5859032D01*
X2796999Y-5866232D01*
X2793400Y-5877231D01*
X2789799Y-5891732D01*
X2786099Y-5899032D01*
X2778800Y-5902631D01*
X2771599Y-5902631D01*
X2764300Y-5899032D01*
X2760699Y-5888132D01*
X2760699Y-5873532D01*
X2760699Y-5955731D02*
G01*
X2836999Y-5955731D01*
X2760699Y-5930232D02*
G01*
X2760699Y-5981232D01*
X2771599Y-6048832D02*
G01*
X2764300Y-6045232D01*
X2760699Y-6034232D01*
X2760699Y-6027031D01*
X2764300Y-6016131D01*
X2775200Y-6008832D01*
X2793400Y-6005232D01*
X2811599Y-6005232D01*
X2826099Y-6008832D01*
X2833400Y-6016131D01*
X2836999Y-6027031D01*
X2836999Y-6030632D01*
X2833400Y-6041532D01*
X2826099Y-6048832D01*
X2815200Y-6052431D01*
X2811599Y-6052431D01*
X2800699Y-6048832D01*
X2793400Y-6041532D01*
X2789799Y-6030632D01*
X2789799Y-6027031D01*
X2793400Y-6016131D01*
X2800699Y-6008832D01*
X2811599Y-6005232D01*
D10*
X1118000Y-4798000D02*
G01*
X1118000Y-4775000D01*
X1758000Y-4799000D02*
G01*
X1758000Y-4775999D01*
X1116000Y-4295000D02*
G01*
X1116000Y-4271999D01*
X1760000Y-4295999D02*
G01*
X1760000Y-4273000D01*
X1766000Y-4273000D01*
X1630000Y-4273000D01*
X965000Y-4475000D02*
G01*
X965000Y-4425000D01*
X1043000Y-4425000D01*
X1043000Y-4640999D01*
X1130000Y-4640999D01*
X1130000Y-4610999D01*
X1130000Y-4451999D02*
G01*
X1130000Y-4425000D01*
X1100000Y-4425000D01*
X1100000Y-4454000D01*
X1043000Y-4454000D01*
X1095000Y-4568656D02*
G01*
X1095000Y-4498000D01*
X1181999Y-4610999D02*
G01*
X1181999Y-4576999D01*
X1161187Y-4576999D01*
X1083127Y-4567008D01*
X1165000Y-4610999D02*
G01*
X1165000Y-4576999D01*
X1181999Y-4576999D02*
G01*
X1196000Y-4576999D01*
X1081000Y-4610999D02*
G01*
X1196000Y-4610999D01*
X1084126Y-4497991D02*
G01*
X1167757Y-4487287D01*
X1166000Y-4454000D02*
G01*
X1166000Y-4488000D01*
X1183000Y-4488000D01*
X1183000Y-4454000D01*
X1183000Y-4488000D02*
G01*
X1196999Y-4488000D01*
X1081999Y-4608000D02*
G01*
X1081999Y-4454000D01*
X1196999Y-4454000D01*
X1046999Y-4610999D02*
G01*
X1103999Y-4610999D01*
X1103999Y-4640000D01*
X1068000Y-4639000D02*
G01*
X1068000Y-4610999D01*
X1063999Y-4453000D02*
G01*
X1063999Y-4425000D01*
X1043000Y-4425000D02*
G01*
X1100000Y-4425000D01*
X888999Y-4635000D02*
G01*
X888999Y-4424000D01*
X905000Y-4641999D02*
G01*
X905000Y-4425000D01*
X991999Y-4640000D02*
G01*
X991999Y-4426999D01*
X1016000Y-4640999D02*
G01*
X1016000Y-4425000D01*
X851063Y-4642064D02*
G01*
X1043000Y-4642064D01*
X848999Y-4424000D02*
G01*
X933000Y-4424000D01*
X933000Y-4474000D01*
X963999Y-4474000D01*
X1863000Y-4649000D02*
G01*
X1863000Y-4625999D01*
X1835000Y-4645180D02*
G01*
X1835000Y-4624000D01*
X1880000Y-4624000D01*
X1766000Y-4645999D02*
G01*
X1766000Y-4600999D01*
X1743000Y-4645999D02*
G01*
X1743000Y-4600999D01*
X1741999Y-4465999D02*
G01*
X1741999Y-4420999D01*
X1765000Y-4465999D02*
G01*
X1765000Y-4420999D01*
X1002983Y-4385000D02*
G01*
X1002983Y-4261016D01*
X1043999Y-4220000D01*
X1876999Y-4220000D01*
X1878000Y-4220999D01*
X1878000Y-4385999D01*
X2028999Y-4385999D01*
X2028999Y-4443000D01*
X848999Y-4443000D02*
G01*
X848999Y-4385999D01*
X1002983Y-4385999D01*
X1876015Y-4684000D02*
G01*
X2030000Y-4684000D01*
X2030000Y-4626999D01*
X850000Y-4628000D02*
G01*
X850000Y-4684000D01*
X1001000Y-4684000D01*
X1001000Y-4849000D01*
X1001999Y-4850000D01*
X1876015Y-4850000D01*
X1876015Y-4685000D01*
X1026000Y-4803000D02*
G01*
X1075000Y-4803000D01*
X1051999Y-4828000D02*
G01*
X1051999Y-4778000D01*
X1801999Y-4270999D02*
G01*
X1853000Y-4270999D01*
X1636999Y-4369000D02*
G01*
X1820000Y-4369000D01*
X1633000Y-4701999D02*
G01*
X1818000Y-4701999D01*
X1626000Y-4798000D02*
G01*
X1761999Y-4798000D01*
X1060000Y-4370000D02*
G01*
X1245000Y-4370000D01*
X1116000Y-4274000D02*
G01*
X1251999Y-4274000D01*
X1063000Y-4700999D02*
G01*
X1248000Y-4700999D01*
X1118999Y-4796999D02*
G01*
X1255000Y-4796999D01*
X1880000Y-4646999D02*
G01*
X1880000Y-4420999D01*
X2030000Y-4650000D02*
G01*
X2028999Y-4649000D01*
X1950000Y-4649000D01*
X1925000Y-4649000D01*
X1910000Y-4649000D01*
X1583000Y-4649000D01*
X1581000Y-4646999D01*
X1581000Y-4420999D01*
X1908999Y-4420999D01*
X1923999Y-4420999D01*
X1923999Y-4468000D01*
X1953000Y-4468000D01*
X1953000Y-4420999D01*
X2028000Y-4420999D01*
X2028999Y-4420000D01*
X1983000Y-4648000D02*
G01*
X1983000Y-4420999D01*
X1998000Y-4649000D02*
G01*
X1998000Y-4420999D01*
X1898999Y-4645000D02*
G01*
X1898999Y-4424000D01*
X1835000Y-4424820D02*
G01*
X1835000Y-4445999D01*
X1880000Y-4445999D01*
X1863000Y-4444000D02*
G01*
X1863000Y-4420999D01*
X1798000Y-4546999D02*
G01*
X1673000Y-4563000D01*
X1665000Y-4563000D01*
X1656999Y-4570999D01*
X1626999Y-4570999D01*
X1626999Y-4579000D01*
X1626999Y-4599000D01*
X1878999Y-4599000D01*
X1673000Y-4598000D02*
G01*
X1673000Y-4563000D01*
X1658999Y-4599000D02*
G01*
X1658999Y-4569000D01*
X1798000Y-4518000D02*
G01*
X1673000Y-4501999D01*
X1665000Y-4501999D01*
X1656999Y-4494000D01*
X1626999Y-4494000D01*
X1626999Y-4485999D01*
X1626999Y-4465999D01*
X1878999Y-4465999D01*
X1673000Y-4501999D02*
G01*
X1673000Y-4466999D01*
X1658999Y-4495999D02*
G01*
X1658999Y-4465999D01*
X4101100Y-4748503D02*
G01*
X4101100Y-4811496D01*
X4238899Y-4748503D02*
G01*
X4238897Y-4811496D01*
X4150315Y-4820945D02*
G01*
X4108977Y-4820945D01*
X4150315Y-4739054D02*
G01*
X4108977Y-4739054D01*
X4189684Y-4820945D02*
G01*
X4231022Y-4820945D01*
X4189684Y-4739054D02*
G01*
X4231022Y-4739054D01*
X4238899Y-4747719D02*
G01*
X4238899Y-4748503D01*
X4238899Y-4746931D02*
G01*
X4238899Y-4748503D01*
X4238897Y-4813069D02*
G01*
X4238897Y-4811496D01*
X4101100Y-4746931D02*
G01*
X4101100Y-4748503D01*
X4101100Y-4813069D02*
G01*
X4101100Y-4811496D01*
X4124561Y-4508977D02*
G01*
X4195429Y-4508977D01*
X4124561Y-4554252D02*
G01*
X4124561Y-4585749D01*
X4124561Y-4631025D02*
G01*
X4195429Y-4631025D01*
D27*
X1300000Y-6400000D02*
G01*
X500000Y-6400000D01*
X500000Y-6200000D01*
X1300000Y-6200000D01*
X1300000Y-6400000D01*
X2305000Y-6399213D02*
G01*
X1505000Y-6399213D01*
X1505000Y-6199213D01*
X2305000Y-6199213D01*
X2305000Y-6399213D01*
X4105000Y-6400000D02*
G01*
X3305000Y-6400000D01*
X3305000Y-6200000D01*
X4105000Y-6200000D01*
X4105000Y-6400000D01*
X5100000Y-6400000D02*
G01*
X4300000Y-6400000D01*
X4300000Y-6200000D01*
X5100000Y-6200000D01*
X5100000Y-6400000D01*
D10*
X3251000Y-4448732D02*
G01*
X2351000Y-4448732D01*
X3251000Y-4448231D02*
G01*
X3251000Y-6546232D01*
X3251000Y-6546232D02*
G01*
X2351000Y-6546232D01*
X2351499Y-4448231D02*
G01*
X2351499Y-6546232D01*
X2935000Y-4449731D02*
G01*
X2935000Y-4626732D01*
X2661000Y-4626732D01*
X2661000Y-4452732D01*
X2660000Y-4451732D01*
X3253500Y-6540232D02*
G01*
X3253500Y-4442231D01*
G75*
G01*
X1074000Y-4702000D02*
G02*
X1118000Y-4775000I-952094J-623625D01*
G75*
G01*
X1758000Y-4776000D02*
G02*
X1802000Y-4703000I996094J-550625D01*
G75*
G01*
X1116000Y-4295000D02*
G02*
X1072000Y-4368000I-996094J550625D01*
G75*
G01*
X1804000Y-4369000D02*
G02*
X1760000Y-4296000I952094J623625D01*
G75*
G01*
X1196000Y-4577000D02*
G02*
X1196000Y-4611000I-3319J-17000D01*
G75*
G01*
X1197000Y-4454000D02*
G02*
X1197000Y-4488000I-3319J-17000D01*
G75*
G01*
X1043000Y-4611000D02*
G02*
X1045000Y-4613000I0J-2000D01*
G75*
G01*
X889000Y-4635000D02*
G02*
X887000Y-4637000I-2000J0D01*
G75*
G01*
X994000Y-4642000D02*
G02*
X992000Y-4640000I0J2000D01*
G75*
G01*
X1017000Y-4642000D02*
G02*
X1016000Y-4641000I0J1000D01*
G75*
G01*
X851100Y-4642100D02*
G02*
X850000Y-4641000I-36J1064D01*
G75*
G01*
X1043900Y-4642100D02*
G02*
X1041000Y-4639100I34J2935D01*
G75*
G01*
X1156000Y-4848000D02*
G02*
X1043900Y-4642100I323442J309560D01*
G75*
G01*
X1039000Y-4425000D02*
G02*
X1041000Y-4427000I0J-2000D01*
G75*
G01*
X964000Y-4474000D02*
G02*
X965000Y-4475000I0J-1000D01*
G75*
G01*
X1828200Y-4244800D02*
G02*
X1827700Y-4244800I-250J-26172D01*
G75*
G01*
X1828200Y-4776800D02*
G02*
X1827700Y-4776800I-250J-26172D01*
G75*
G01*
X1052200Y-4776800D02*
G02*
X1051700Y-4776800I-250J-26172D01*
G75*
G01*
X1052200Y-4239800D02*
G02*
X1051700Y-4239800I-250J-26172D01*
G75*
G01*
X1717000Y-4220000D02*
G02*
X1838300Y-4421500I-309452J-323546D01*
G75*
G01*
X1041000Y-4427000D02*
G02*
X1153100Y-4221100I435542J-103660D01*
G75*
G01*
X1637000Y-4369000D02*
G02*
X1630000Y-4273000I2272J48421D01*
G75*
G01*
X1627000Y-4798000D02*
G02*
X1634000Y-4702000I9272J47579D01*
G75*
G01*
X1252000Y-4274000D02*
G02*
X1245000Y-4370000I-9272J-47579D01*
G75*
G01*
X1248000Y-4701000D02*
G02*
X1255000Y-4797000I-2272J-48421D01*
G75*
G01*
X1835000Y-4651000D02*
G02*
X1717400Y-4848300I-430508J122905D01*
G75*
G01*
X1798000Y-4518000D02*
G02*
X1798000Y-4547000I-14500J-14500D01*
G75*
G01*
X4231023Y-4739055D02*
G02*
X4238899Y-4746931I0J-7876D01*
G75*
G01*
X4231023Y-4820945D02*
G03*
X4238898Y-4813070I0J7875D01*
G75*
G01*
X4108977Y-4739055D02*
G03*
X4101101Y-4746931I0J-7876D01*
G75*
G01*
X4108977Y-4820945D02*
G02*
X4101101Y-4813069I0J7876D01*
G75*
G01
X4224990Y-4505000D02*
G03X4224990Y-4505000I-5000J0D01*
G75*
G01
X1260000Y-6370000D02*
G03X1260000Y-6370000I-10000J0D01*
G75*
G01
X2265000Y-6369210D02*
G03X2265000Y-6369210I-10000J0D01*
G75*
G01
X4065000Y-6370000D02*
G03X4065000Y-6370000I-10000J0D01*
G75*
G01
X5060000Y-6370000D02*
G03X5060000Y-6370000I-10000J0D01*
M02*
