G04 Layer: TopSolderMaskLayer*
G04 EasyEDA v6.4.20.2, 2021-06-27T22:08:49--7:00*
G04 5bb4508a62654dd5b4bd4a713fde6167,27d4ab91a1c145949b64cbb6833597a5,10*
G04 Gerber Generator version 0.2*
G04 Scale: 100 percent, Rotated: No, Reflected: No *
G04 Dimensions in inches *
G04 leading zeros omitted , absolute positions ,3 integer and 6 decimal *
%FSLAX36Y36*%
%MOIN*%

%ADD30C,0.0568*%
%ADD31C,0.0789*%
%ADD33C,0.0680*%
%ADD35C,0.0630*%
%ADD37C,0.0867*%

%LPD*%
G36*
X4312500Y-4382500D02*
G01*
X4312500Y-4307500D01*
X4387500Y-4307500D01*
X4387500Y-4382500D01*
G37*
G36*
X4812500Y-4392500D02*
G01*
X4812500Y-4317500D01*
X4887500Y-4317500D01*
X4887500Y-4392500D01*
G37*
G36*
X4577500Y-4382500D02*
G01*
X4577500Y-4307500D01*
X4652500Y-4307500D01*
X4652500Y-4382500D01*
G37*
D30*
G01*
X984250Y-5271309D03*
G01*
X871250Y-5299310D03*
G01*
X783249Y-5377310D03*
G01*
X742249Y-5486309D03*
G01*
X756250Y-5601309D03*
G01*
X822250Y-5697310D03*
G01*
X926250Y-5752310D03*
G01*
X1042250Y-5752310D03*
G01*
X1146250Y-5697310D03*
G01*
X1212250Y-5601309D03*
G01*
X1226250Y-5486309D03*
G01*
X1185249Y-5377310D03*
G01*
X1097250Y-5299310D03*
G01*
X1968500Y-5271309D03*
G01*
X1855500Y-5299310D03*
G01*
X1767500Y-5377310D03*
G01*
X1726499Y-5486309D03*
G01*
X1740500Y-5601309D03*
G01*
X1806499Y-5697310D03*
G01*
X1910500Y-5752310D03*
G01*
X2026499Y-5752310D03*
G01*
X2130500Y-5697310D03*
G01*
X2196499Y-5601309D03*
G01*
X2210500Y-5486309D03*
G01*
X2169499Y-5377310D03*
G01*
X2081499Y-5299310D03*
D31*
G01*
X3150000Y-4350000D03*
G36*
X3010600Y-4389400D02*
G01*
X3010600Y-4310599D01*
X3089399Y-4310599D01*
X3089399Y-4389400D01*
G37*
G01*
X2450000Y-4345000D03*
G36*
X2510600Y-4384400D02*
G01*
X2510600Y-4305599D01*
X2589399Y-4305599D01*
X2589399Y-4384400D01*
G37*
D30*
G01*
X3661419Y-5271309D03*
G01*
X3548419Y-5299310D03*
G01*
X3460420Y-5377310D03*
G01*
X3419420Y-5486309D03*
G01*
X3433419Y-5601309D03*
G01*
X3499420Y-5697310D03*
G01*
X3603419Y-5752310D03*
G01*
X3719420Y-5752310D03*
G01*
X3823419Y-5697310D03*
G01*
X3889420Y-5601309D03*
G01*
X3903419Y-5486309D03*
G01*
X3862420Y-5377310D03*
G01*
X3774420Y-5299310D03*
D33*
G01*
X980110Y-5000000D03*
G01*
X369890Y-5000000D03*
G01*
X1965119Y-5000000D03*
G01*
X1354889Y-5000000D03*
G01*
X3659889Y-5000000D03*
G01*
X4270119Y-5000000D03*
G01*
X4649889Y-5000000D03*
G01*
X5260119Y-5000000D03*
D30*
G01*
X4645670Y-5271309D03*
G01*
X4532669Y-5299310D03*
G01*
X4444669Y-5377310D03*
G01*
X4403670Y-5486309D03*
G01*
X4417669Y-5601309D03*
G01*
X4483670Y-5697310D03*
G01*
X4587669Y-5752310D03*
G01*
X4703670Y-5752310D03*
G01*
X4807669Y-5697310D03*
G01*
X4873670Y-5601309D03*
G01*
X4887669Y-5486309D03*
G01*
X4846670Y-5377310D03*
G01*
X4758670Y-5299310D03*
G36*
X1218500Y-6481500D02*
G01*
X1218500Y-6418499D01*
X1281499Y-6418499D01*
X1281499Y-6481500D01*
G37*
D35*
G01*
X1150000Y-6450000D03*
G01*
X1050000Y-6450000D03*
G01*
X950000Y-6450000D03*
G01*
X850000Y-6450000D03*
G01*
X750000Y-6450000D03*
G01*
X650000Y-6450000D03*
G01*
X550000Y-6450000D03*
G01*
X550000Y-6150000D03*
G01*
X650000Y-6150000D03*
G01*
X750000Y-6150000D03*
G01*
X850000Y-6150000D03*
G01*
X950000Y-6150000D03*
G01*
X1050000Y-6150000D03*
G01*
X1150000Y-6150000D03*
G01*
X1250000Y-6150000D03*
G36*
X2223500Y-6480700D02*
G01*
X2223500Y-6417700D01*
X2286499Y-6417700D01*
X2286499Y-6480700D01*
G37*
G01*
X2155000Y-6449209D03*
G01*
X2055000Y-6449209D03*
G01*
X1955000Y-6449209D03*
G01*
X1855000Y-6449209D03*
G01*
X1755000Y-6449209D03*
G01*
X1655000Y-6449209D03*
G01*
X1555000Y-6449209D03*
G01*
X1555000Y-6149209D03*
G01*
X1655000Y-6149209D03*
G01*
X1755000Y-6149209D03*
G01*
X1855000Y-6149209D03*
G01*
X1955000Y-6149209D03*
G01*
X2055000Y-6149209D03*
G01*
X2155000Y-6149209D03*
G01*
X2255000Y-6149209D03*
G36*
X4023500Y-6481500D02*
G01*
X4023500Y-6418499D01*
X4086499Y-6418499D01*
X4086499Y-6481500D01*
G37*
G01*
X3955000Y-6450000D03*
G01*
X3855000Y-6450000D03*
G01*
X3755000Y-6450000D03*
G01*
X3655000Y-6450000D03*
G01*
X3555000Y-6450000D03*
G01*
X3455000Y-6450000D03*
G01*
X3355000Y-6450000D03*
G01*
X3355000Y-6150000D03*
G01*
X3455000Y-6150000D03*
G01*
X3555000Y-6150000D03*
G01*
X3655000Y-6150000D03*
G01*
X3755000Y-6150000D03*
G01*
X3855000Y-6150000D03*
G01*
X3955000Y-6150000D03*
G01*
X4055000Y-6150000D03*
G36*
X5018500Y-6481500D02*
G01*
X5018500Y-6418499D01*
X5081499Y-6418499D01*
X5081499Y-6481500D01*
G37*
G01*
X4950000Y-6450000D03*
G01*
X4850000Y-6450000D03*
G01*
X4750000Y-6450000D03*
G01*
X4650000Y-6450000D03*
G01*
X4550000Y-6450000D03*
G01*
X4450000Y-6450000D03*
G01*
X4350000Y-6450000D03*
G01*
X4350000Y-6150000D03*
G01*
X4450000Y-6150000D03*
G01*
X4550000Y-6150000D03*
G01*
X4650000Y-6150000D03*
G01*
X4750000Y-6150000D03*
G01*
X4850000Y-6150000D03*
G01*
X4950000Y-6150000D03*
G01*
X5050000Y-6150000D03*
G36*
X3055600Y-4586100D02*
G01*
X3055600Y-4499400D01*
X3142399Y-4499400D01*
X3142399Y-4586100D01*
G37*
D37*
G01*
X3098999Y-4642730D03*
G01*
X3098999Y-4742730D03*
G01*
X3098999Y-4842730D03*
G01*
X3098999Y-4942730D03*
G01*
X3098999Y-5042730D03*
G01*
X3098999Y-5142730D03*
G01*
X3098999Y-5242730D03*
G01*
X3098999Y-5342730D03*
G01*
X3098999Y-5442730D03*
G01*
X3098999Y-5542730D03*
G01*
X3098999Y-5642730D03*
G01*
X3098999Y-5742730D03*
G01*
X3098999Y-5842730D03*
G01*
X3098999Y-5942730D03*
G01*
X3098999Y-6042730D03*
G01*
X3098999Y-6142730D03*
G01*
X3098999Y-6242730D03*
G01*
X3098999Y-6342730D03*
G01*
X3098999Y-6442730D03*
G01*
X2498999Y-4542730D03*
G01*
X2498999Y-4642730D03*
G01*
X2498999Y-4742730D03*
G01*
X2498999Y-4842730D03*
G01*
X2498999Y-4942730D03*
G01*
X2498999Y-5042730D03*
G01*
X2498999Y-5142730D03*
G01*
X2498999Y-5242730D03*
G01*
X2498999Y-5342730D03*
G01*
X2498999Y-5442730D03*
G01*
X2498999Y-5542730D03*
G01*
X2498999Y-5642730D03*
G01*
X2498999Y-5742730D03*
G01*
X2498999Y-5842730D03*
G01*
X2498999Y-5942730D03*
G01*
X2498999Y-6042730D03*
G01*
X2498999Y-6142730D03*
G01*
X2498999Y-6242730D03*
G01*
X2498999Y-6342730D03*
G01*
X2498999Y-6442730D03*
M02*
