G04 Layer: TopSilkLayer*
G04 EasyEDA v6.4.20.2, 2021-06-27T22:08:49--7:00*
G04 5bb4508a62654dd5b4bd4a713fde6167,27d4ab91a1c145949b64cbb6833597a5,10*
G04 Gerber Generator version 0.2*
G04 Scale: 100 percent, Rotated: No, Reflected: No *
G04 Dimensions in inches *
G04 leading zeros omitted , absolute positions ,3 integer and 6 decimal *
%FSLAX36Y36*%
%MOIN*%

%ADD10C,0.0100*%
%ADD24C,0.0080*%
%ADD25C,0.0080*%
%ADD26C,0.0060*%

%LPD*%
D26*
X4374499Y-4243600D02*
G01*
X4354099Y-4243600D01*
X4351999Y-4261999D01*
X4354099Y-4260000D01*
X4360200Y-4257900D01*
X4366400Y-4257900D01*
X4372500Y-4260000D01*
X4376599Y-4264000D01*
X4378599Y-4270200D01*
X4378599Y-4274299D01*
X4376599Y-4280400D01*
X4372500Y-4284499D01*
X4366400Y-4286500D01*
X4360200Y-4286500D01*
X4354099Y-4284499D01*
X4351999Y-4282500D01*
X4350000Y-4278400D01*
X4392100Y-4243600D02*
G01*
X4408500Y-4286500D01*
X4424899Y-4243600D02*
G01*
X4408500Y-4286500D01*
X4438400Y-4268099D02*
G01*
X4475200Y-4268099D01*
X4488699Y-4243600D02*
G01*
X4488699Y-4286500D01*
X4488699Y-4243600D02*
G01*
X4503000Y-4243600D01*
X4509099Y-4245599D01*
X4513199Y-4249699D01*
X4515299Y-4253800D01*
X4517299Y-4260000D01*
X4517299Y-4270200D01*
X4515299Y-4276300D01*
X4513199Y-4280400D01*
X4509099Y-4284499D01*
X4503000Y-4286500D01*
X4488699Y-4286500D01*
X4561499Y-4253800D02*
G01*
X4559499Y-4249699D01*
X4555400Y-4245599D01*
X4551300Y-4243600D01*
X4543100Y-4243600D01*
X4538999Y-4245599D01*
X4534899Y-4249699D01*
X4532900Y-4253800D01*
X4530799Y-4260000D01*
X4530799Y-4270200D01*
X4532900Y-4276300D01*
X4534899Y-4280400D01*
X4538999Y-4284499D01*
X4543100Y-4286500D01*
X4551300Y-4286500D01*
X4555400Y-4284499D01*
X4559499Y-4280400D01*
X4561499Y-4276300D01*
X4850000Y-4261799D02*
G01*
X4854099Y-4259699D01*
X4860200Y-4253600D01*
X4860200Y-4296500D01*
X4902399Y-4253600D02*
G01*
X4881899Y-4296500D01*
X4873699Y-4253600D02*
G01*
X4902399Y-4253600D01*
X4928100Y-4253600D02*
G01*
X4921999Y-4255599D01*
X4917900Y-4261799D01*
X4915900Y-4271999D01*
X4915900Y-4278099D01*
X4917900Y-4288400D01*
X4921999Y-4294499D01*
X4928100Y-4296500D01*
X4932200Y-4296500D01*
X4938400Y-4294499D01*
X4942500Y-4288400D01*
X4944499Y-4278099D01*
X4944499Y-4271999D01*
X4942500Y-4261799D01*
X4938400Y-4255599D01*
X4932200Y-4253600D01*
X4928100Y-4253600D01*
X4958000Y-4253600D02*
G01*
X4974399Y-4296500D01*
X4990699Y-4253600D02*
G01*
X4974399Y-4296500D01*
X5004200Y-4278099D02*
G01*
X5041000Y-4278099D01*
X5054499Y-4253600D02*
G01*
X5054499Y-4296500D01*
X5054499Y-4253600D02*
G01*
X5068900Y-4253600D01*
X5075000Y-4255599D01*
X5079099Y-4259699D01*
X5081099Y-4263800D01*
X5083199Y-4270000D01*
X5083199Y-4280200D01*
X5081099Y-4286300D01*
X5079099Y-4290400D01*
X5075000Y-4294499D01*
X5068900Y-4296500D01*
X5054499Y-4296500D01*
X5127399Y-4263800D02*
G01*
X5125299Y-4259699D01*
X5121199Y-4255599D01*
X5117100Y-4253600D01*
X5108999Y-4253600D01*
X5104899Y-4255599D01*
X5100799Y-4259699D01*
X5098699Y-4263800D01*
X5096700Y-4270000D01*
X5096700Y-4280200D01*
X5098699Y-4286300D01*
X5100799Y-4290400D01*
X5104899Y-4294499D01*
X5108999Y-4296500D01*
X5117100Y-4296500D01*
X5121199Y-4294499D01*
X5125299Y-4290400D01*
X5127399Y-4286300D01*
X4645699Y-4253800D02*
G01*
X4643599Y-4249699D01*
X4639499Y-4245599D01*
X4635500Y-4243600D01*
X4627299Y-4243600D01*
X4623199Y-4245599D01*
X4619099Y-4249699D01*
X4616999Y-4253800D01*
X4615000Y-4260000D01*
X4615000Y-4270200D01*
X4616999Y-4276300D01*
X4619099Y-4280400D01*
X4623199Y-4284499D01*
X4627299Y-4286500D01*
X4635500Y-4286500D01*
X4639499Y-4284499D01*
X4643599Y-4280400D01*
X4645699Y-4276300D01*
X4645699Y-4270200D01*
X4635500Y-4270200D02*
G01*
X4645699Y-4270200D01*
X4659200Y-4243600D02*
G01*
X4659200Y-4286500D01*
X4659200Y-4243600D02*
G01*
X4687799Y-4286500D01*
X4687799Y-4243600D02*
G01*
X4687799Y-4286500D01*
X4701300Y-4243600D02*
G01*
X4701300Y-4286500D01*
X4701300Y-4243600D02*
G01*
X4715600Y-4243600D01*
X4721800Y-4245599D01*
X4725900Y-4249699D01*
X4727900Y-4253800D01*
X4730000Y-4260000D01*
X4730000Y-4270200D01*
X4727900Y-4276300D01*
X4725900Y-4280400D01*
X4721800Y-4284499D01*
X4715600Y-4286500D01*
X4701300Y-4286500D01*
X984252Y-5920711D02*
G01*
X984252Y-5877811D01*
X955653Y-5920711D02*
G01*
X955653Y-5877811D01*
X984252Y-5900311D02*
G01*
X955653Y-5900311D01*
X929853Y-5920711D02*
G01*
X935952Y-5918710D01*
X940052Y-5912510D01*
X942152Y-5902311D01*
X942152Y-5896210D01*
X940052Y-5885911D01*
X935952Y-5879811D01*
X929853Y-5877811D01*
X925753Y-5877811D01*
X919652Y-5879811D01*
X915552Y-5885911D01*
X913452Y-5896210D01*
X913452Y-5902311D01*
X915552Y-5912510D01*
X919652Y-5918710D01*
X925753Y-5920711D01*
X929853Y-5920711D01*
X1968504Y-5917211D02*
G01*
X1968504Y-5874310D01*
X1939903Y-5917211D02*
G01*
X1939903Y-5874310D01*
X1968504Y-5896810D02*
G01*
X1939903Y-5896810D01*
X1926404Y-5909011D02*
G01*
X1922304Y-5911111D01*
X1916103Y-5917211D01*
X1916103Y-5874310D01*
X3095000Y-4239600D02*
G01*
X3095000Y-4282500D01*
X3123599Y-4239600D02*
G01*
X3123599Y-4282500D01*
X3095000Y-4260000D02*
G01*
X3123599Y-4260000D01*
X3139200Y-4249800D02*
G01*
X3139200Y-4247800D01*
X3141199Y-4243699D01*
X3143299Y-4241599D01*
X3147399Y-4239600D01*
X3155500Y-4239600D01*
X3159600Y-4241599D01*
X3161700Y-4243699D01*
X3163699Y-4247800D01*
X3163699Y-4251900D01*
X3161700Y-4255999D01*
X3157600Y-4262100D01*
X3137100Y-4282500D01*
X3165799Y-4282500D01*
X2424300Y-4224600D02*
G01*
X2424300Y-4267500D01*
X2410000Y-4224600D02*
G01*
X2438599Y-4224600D01*
X2452100Y-4224600D02*
G01*
X2480799Y-4267500D01*
X2480799Y-4224600D02*
G01*
X2452100Y-4267500D01*
X2498400Y-4259400D02*
G01*
X2496300Y-4261399D01*
X2494300Y-4259400D01*
X2496300Y-4257300D01*
X2498400Y-4259400D01*
X2498400Y-4263499D01*
X2494300Y-4267500D01*
X2511899Y-4224600D02*
G01*
X2511899Y-4267500D01*
X2511899Y-4224600D02*
G01*
X2530299Y-4224600D01*
X2536400Y-4226599D01*
X2538500Y-4228699D01*
X2540500Y-4232800D01*
X2540500Y-4236900D01*
X2538500Y-4240999D01*
X2536400Y-4243000D01*
X2530299Y-4245000D01*
X2511899Y-4245000D01*
X2526199Y-4245000D02*
G01*
X2540500Y-4267500D01*
X2553999Y-4224600D02*
G01*
X2582600Y-4267500D01*
X2582600Y-4224600D02*
G01*
X2553999Y-4267500D01*
X3661417Y-5920711D02*
G01*
X3661417Y-5877811D01*
X3661417Y-5920711D02*
G01*
X3645016Y-5877811D01*
X3628716Y-5920711D02*
G01*
X3645016Y-5877811D01*
X3628716Y-5920711D02*
G01*
X3628716Y-5877811D01*
X3602916Y-5920711D02*
G01*
X3609017Y-5918710D01*
X3613117Y-5912510D01*
X3615217Y-5902311D01*
X3615217Y-5896210D01*
X3613117Y-5885911D01*
X3609017Y-5879811D01*
X3602916Y-5877811D01*
X3598816Y-5877811D01*
X3592717Y-5879811D01*
X3588617Y-5885911D01*
X3586517Y-5896210D01*
X3586517Y-5902311D01*
X3588617Y-5912510D01*
X3592717Y-5918710D01*
X3598816Y-5920711D01*
X3602916Y-5920711D01*
X675945Y-5140400D02*
G01*
X675945Y-5097500D01*
X675945Y-5140400D02*
G01*
X657545Y-5140400D01*
X651444Y-5138400D01*
X649344Y-5136300D01*
X647345Y-5132199D01*
X647345Y-5128099D01*
X649344Y-5124000D01*
X651444Y-5121999D01*
X657545Y-5120000D01*
X675945Y-5120000D01*
X661644Y-5120000D02*
G01*
X647345Y-5097500D01*
X633845Y-5132199D02*
G01*
X629744Y-5134299D01*
X623544Y-5140400D01*
X623544Y-5097500D01*
X1660945Y-5140400D02*
G01*
X1660945Y-5097500D01*
X1660945Y-5140400D02*
G01*
X1642545Y-5140400D01*
X1636445Y-5138400D01*
X1634345Y-5136300D01*
X1632344Y-5132199D01*
X1632344Y-5128099D01*
X1634345Y-5124000D01*
X1636445Y-5121999D01*
X1642545Y-5120000D01*
X1660945Y-5120000D01*
X1646644Y-5120000D02*
G01*
X1632344Y-5097500D01*
X1616745Y-5130200D02*
G01*
X1616745Y-5132199D01*
X1614745Y-5136300D01*
X1612645Y-5138400D01*
X1608545Y-5140400D01*
X1600444Y-5140400D01*
X1596345Y-5138400D01*
X1594245Y-5136300D01*
X1592245Y-5132199D01*
X1592245Y-5128099D01*
X1594245Y-5124000D01*
X1598344Y-5117900D01*
X1618845Y-5097500D01*
X1590145Y-5097500D01*
X3964054Y-4859600D02*
G01*
X3964054Y-4902500D01*
X3964054Y-4859600D02*
G01*
X3982455Y-4859600D01*
X3988554Y-4861599D01*
X3990654Y-4863699D01*
X3992655Y-4867800D01*
X3992655Y-4871900D01*
X3990654Y-4875999D01*
X3988554Y-4878000D01*
X3982455Y-4880000D01*
X3964054Y-4880000D01*
X3978355Y-4880000D02*
G01*
X3992655Y-4902500D01*
X4010254Y-4859600D02*
G01*
X4032754Y-4859600D01*
X4020555Y-4875999D01*
X4026655Y-4875999D01*
X4030754Y-4878000D01*
X4032754Y-4880000D01*
X4034854Y-4886199D01*
X4034854Y-4890300D01*
X4032754Y-4896399D01*
X4028654Y-4900500D01*
X4022555Y-4902500D01*
X4016454Y-4902500D01*
X4010254Y-4900500D01*
X4008254Y-4898499D01*
X4006154Y-4894400D01*
X4954054Y-4859600D02*
G01*
X4954054Y-4902500D01*
X4954054Y-4859600D02*
G01*
X4972455Y-4859600D01*
X4978554Y-4861599D01*
X4980654Y-4863699D01*
X4982655Y-4867800D01*
X4982655Y-4871900D01*
X4980654Y-4875999D01*
X4978554Y-4878000D01*
X4972455Y-4880000D01*
X4954054Y-4880000D01*
X4968355Y-4880000D02*
G01*
X4982655Y-4902500D01*
X5016655Y-4859600D02*
G01*
X4996154Y-4888200D01*
X5026854Y-4888200D01*
X5016655Y-4859600D02*
G01*
X5016655Y-4902500D01*
X4645668Y-5920711D02*
G01*
X4645668Y-5877811D01*
X4645668Y-5920711D02*
G01*
X4629269Y-5877811D01*
X4612969Y-5920711D02*
G01*
X4629269Y-5877811D01*
X4612969Y-5920711D02*
G01*
X4612969Y-5877811D01*
X4599468Y-5912510D02*
G01*
X4595369Y-5914611D01*
X4589169Y-5920711D01*
X4589169Y-5877811D01*
D24*
X4400000Y-4395000D02*
G01*
X4300000Y-4395000D01*
X4300000Y-4295000D01*
X4400000Y-4295000D01*
X4400000Y-4370000D01*
D25*
X4400000Y-4395000D02*
G01*
X4400000Y-4370000D01*
D24*
X4900000Y-4405000D02*
G01*
X4800000Y-4405000D01*
X4800000Y-4305000D01*
X4900000Y-4305000D01*
X4900000Y-4380000D01*
D25*
X4900000Y-4405000D02*
G01*
X4900000Y-4380000D01*
D24*
X4665000Y-4395000D02*
G01*
X4565000Y-4395000D01*
X4565000Y-4295000D01*
X4665000Y-4295000D01*
X4665000Y-4370000D01*
D25*
X4665000Y-4395000D02*
G01*
X4665000Y-4370000D01*
D10*
X3000000Y-4300000D02*
G01*
X3200000Y-4300000D01*
X3200000Y-4400000D01*
X3000000Y-4400000D01*
X3000000Y-4300000D01*
X2600000Y-4395000D02*
G01*
X2400000Y-4395000D01*
X2400000Y-4295000D01*
X2600000Y-4295000D01*
X2600000Y-4395000D01*
X905045Y-5000000D02*
G01*
X935045Y-5000000D01*
X445045Y-5000000D02*
G01*
X415045Y-5000000D01*
X901374Y-5078739D02*
G01*
X448614Y-5078739D01*
X448614Y-4921260D01*
X901374Y-4921260D01*
X901374Y-5078739D01*
X1890045Y-5000000D02*
G01*
X1920045Y-5000000D01*
X1430045Y-5000000D02*
G01*
X1400045Y-5000000D01*
X1886374Y-5078739D02*
G01*
X1433614Y-5078739D01*
X1433614Y-4921260D01*
X1886374Y-4921260D01*
X1886374Y-5078739D01*
X3734955Y-5000000D02*
G01*
X3704955Y-5000000D01*
X4194955Y-5000000D02*
G01*
X4224955Y-5000000D01*
X3738625Y-4921260D02*
G01*
X4191385Y-4921260D01*
X4191385Y-5078739D01*
X3738625Y-5078739D01*
X3738625Y-4921260D01*
X4724955Y-5000000D02*
G01*
X4694955Y-5000000D01*
X5184955Y-5000000D02*
G01*
X5214955Y-5000000D01*
X4728625Y-4921260D02*
G01*
X5181385Y-4921260D01*
X5181385Y-5078739D01*
X4728625Y-5078739D01*
X4728625Y-4921260D01*
G75*
G01*
X1284251Y-5509059D02*
G02*
X684249Y-5515311I-300008J-2471D01*
G75*
G01*
X2268503Y-5509059D02*
G02*
X1668501Y-5515311I-300008J-2471D01*
G75*
G01*
X3961417Y-5509059D02*
G02*
X3361414Y-5515311I-300005J-2768D01*
G75*
G01*
X4945669Y-5509059D02*
G02*
X4345666Y-5515311I-300005J-2768D01*
G75*
G01
X1333250Y-5515310D02*
G03X1333250Y-5515310I-349000J0D01*
G75*
G01
X2317500Y-5515310D02*
G03X2317500Y-5515310I-349000J0D01*
G75*
G01
X4010420Y-5515310D02*
G03X4010420Y-5515310I-349000J0D01*
G75*
G01
X4994670Y-5515310D02*
G03X4994670Y-5515310I-349000J0D01*
M02*
